<svg id="Layer_1" data-name="Layer 1" xmlns="http://www.w3.org/2000/svg" viewBox="0 0 1109.93 1460.54"><defs><style>.cls-1{fill:none;stroke:#000;stroke-miterlimit:10;stroke-width:2px;}</style></defs><path class="cls-1" d="M26.92.74c31.87,59.59,54.64,71.37,70,70,10.65-1,14.31-7.91,29-10,31.82-4.52,64.63,21,62,30-3.44,11.7-64.63-14.48-91,14-18,19.5-.12,43.39-10,89-12.54,57.94-60.31,106.4-76,100-15.91-6.49-11.28-74.44,4-78,16.4-3.81,62,62.53,48,116-10,38-46,53.7-39,72,7.4,19.37,49.3,6,64,28,20.07,30.08-42.88,77.85-27,131,10.29,34.44,51.11,62.59,77,55,40.63-11.91,32.49-108.31,63-113,28.27-4.34,53.48,75.63,71,71,18.22-4.81,4.21-94.75,6-228,1.16-86.85,1.75-130.28,14-151,62.2-105.19,364-37.34,502-1,.22.06,31.49,3.92,34.5,16.5a9.16,9.16,0,0,1,.19,3c-8.74,108.46-.11,217.61-.19,326.42,0,6.72,0,24.12-11.31,33.46-8.92,7.33-20.87,6.4-24.69,6.14-144-9.7-289.11,5.51-433-6-9.26-.74-43.89-3.43-43.83-5.86,0-.61,2.15-1,2.83-1.14,93.57-17.74,233.5-1.52,233.5-1.52,183.91,21.32,204.18-.66,237.5,3.5,3.93.49,20.53,2.9,24.26-4a6.43,6.43,0,0,0,.74-3c1.25-31.89,1.88-47.83-8-57-6.23-5.78-13.61-7.17-18-8-17.92-3.37-25.24,7.42-43,3-2.47-.61-14.25-3.55-16-11a9,9,0,0,1,1-6.45c2.72-4.27,9.34-4.43,13-4.55,30.81-1,35.15-5.44,47,0,4.66,2.14,10,4.61,12,10s-.43,11.32-4,20c-1.49,3.63-2.54,5.2-3.91,6.53-3.73,3.63-8.57,4.2-11.09,4.47-28.76,3-43.3,4.48-51,0-3.19-1.85-11-6.51-15-16-4.81-11.24-1.3-22,0-26a13.41,13.41,0,0,1,2.13-4.36c4.4-5.63,12.94-5.67,16.87-5.64,39.42.34,55.27,5.85,65,0,18.34-11,.35-53.56,5-140,1.18-21.91,3.94-49.05,6-49,2.65.06,3.45,45.07,4,76,0,0,.82,46.09-4,124-2.5,40.43-4,49-12,56-16.18,14.15-43.9,8.37-84,0a16.5,16.5,0,0,1-7.27-3.3c-5.46-4.46-6.4-11.79-6.73-15.7-1.9-22.76,2.58-102.94,0-147-.19-3.33-1.58-27-4-27-1.92,0-2.8,14.71-7,53-5.2,47.46-7.42,57.54,0,64,2.76,2.4,15.84,2.6,42,3,3.58.05,9.66.06,14-4,4-3.68,4.69-9,5-11,6.84-53.31,16.15-95.4-3-121a31.24,31.24,0,0,0-10-9c-13.14-7.26-28.39-2.19-34,0-6.94-14.86-7-15-7-15-3.36-7.29-5.64-25.63,0-75,0,0-1.21-6-2-6-1.28-.09-3.47,15-6,37,1.23,11,3.17,12.85,3.17,12.85,2.19,2.1,5.3,2.13,6.83,2.15,47.13.76,64.42-.83,99-4,2.16-.2,7.38-.64,11-4.46,2-2.13,3.41-5.13,4-12.54.6-8,2.15-28.61-7-38-1.15-1.18-5.17-5-4.14-7.63a3.3,3.3,0,0,1,1.14-1.37c2.84-2.44,7.72-2.65,8.78-.88a1.5,1.5,0,0,1,.22.88c-.33,2.88-14.15,3.82-17,4-32.1,2-85.23-.9-94.19-1h-.81c-3.59,0-11.72.11-15.45,3.9-2.55,2.59-2.54,6.42-2.55,8.1-1.52,265-1,272,0,286,.48,6.63.85,11.89,1,14l-28-6c-33.76-7.11-70.31,4.25-125-1-30.34-2.91-49.21-5-59-20s-8.27-39.54,3-54c9-11.6,18.42-9.11,29-23,9.74-12.79,11-26.95,11.5-33,.58-6.65,3.33-38.21-20.5-58-21.09-17.52-47.25-12.75-51-12-25.85,5.15-47.45,26.8-52,54-4.58,27.39,8.89,55.81,30.91,67.44,12.74,6.71,25,6.08,35.09,5.56,4.43-.23,35.86-2.28,54.73-24.37a73.59,73.59,0,0,0,6.27-8.63c6.78-10.76,9.63-20.9,12-32,6.18-28.9,1.32-27.75,6-38,9.19-20.13,29.29-27.53,36-30,13.56-5,19.58-1.92,21-1.11.91.52,4.36,2.6,7,8.11,22.82,47.77,4,105,4,105a171.35,171.35,0,0,1-44,70c-11.08,10.49-33.24,31-69,39-35.4,8-63.92-.8-77-5-36.06-11.57-57.78-32.78-62-37-40.41-40.43-43.44-92.11-44-105-.53-12.23-3.34-76.76,45-121,41.19-37.69,94.67-37.94,109-38a122.08,122.08,0,0,1,20.84,1.22c67.06,10.1,95.4,75.29,109.16,67.78,9.08-5-2.47-33.76-3-60,0-2.47-.1-9.61-4.34-12.14a7.54,7.54,0,0,0-4.66-.86c-19.46,1.9-139.81-33.12-211,1-.09,0-21.69,10.4-48,9-15-.8-18.1-4.69-19-7-1.45-3.73.2-10.19,3.4-11.21a3.4,3.4,0,0,1,2.6.21c3.35,1.77,2.45,9.33,1,25-.43,4.61-.62,9.25-1.23,13.84-5,37,14.82,120.89-1.77,201.16-.67,3.24-10.47,50.36,2,76,2.07,4.26,5.93,12.2,11,12,4.57-.18,9.81-7,8-11-1.65-3.68-9.22-5.13-12-2-1.82,2-1.25,5.65-.07,8,2.53,5,9,6.51,11.07,7,31.18,7.14,150-5,150-5,51.65-5.28,93-9.49,122-4,18.45,3.49,28.3,1.33,48-3,5.37-1.18,10.44-2.63,14-7,5.27-6.47.64-11.22,2-32,0,0,1.32-20.19-2-30a8.65,8.65,0,0,0-2.29-3.67c-2.55-2.35-6.07-2.33-7.71-2.33-12,0-14.37-1.26-33,1-2.12.26-5.78.75-7.72,3.49a7.82,7.82,0,0,0-1.28,4.51c-.21,21.69,2.72,43.31,3,65a5.15,5.15,0,0,0,1,3.19c1.44,1.76,4.1,1.79,5,1.81,12.4.27,21.87,6.49,36,1a44,44,0,0,0,9-5c13.66-10,13.56-72.24,2-154,.06-.7-.46-53.83-2-76-.2-2.91-.74-9.4-5.25-12.41a10.43,10.43,0,0,0-5.75-1.59c-11.58-.32-28.88.79-32,1,0,0-3.24.05-4.79-1.36a5.05,5.05,0,0,1-1.21-3.64c-.28-15-6.86-29.84,3-42a25.33,25.33,0,0,1,7-6c10.71-6.08,22.85-1.81,28,0s9.81,3.45,13,8c3.9,5.56,3.3,12.17,3,15-3.66,34.77-50,107-50,107a433.54,433.54,0,0,0-39,77s-7.78,7.35-11,10c-10.72,8.82-24.06,9.26-46,10-5.18.17-10.45.05-10.81-1.49-.13-.57.44-1.16.81-1.51,5.43-5.13,23.31-9.86,35-15,5.53-2.43,9-4.68,12-3s3.65,6.42,4,9a22,22,0,0,1-1,10l-7,5c-3.51,2.49-15.12,6.09-50,11-5.71.66-6.8.14-6.8.14-1.71-.8-2.49-2.68-3.2-5.14a54.42,54.42,0,0,1-2-16,21.4,21.4,0,0,1,.5-2.88c.76-2.26,4.6-2.95,5.5-3.12,4.81-.89,28-5.63,60-12l9-7c5-3.89,24.46-40,76-150,.06-.1,17.06-22.54,19-45,.38-4.4.28-9.89-3.2-12.87-2-1.74-4.43-2-6.8-2.13-23.13-1.74-26.94,1.08-38,1a8.28,8.28,0,0,0-4.73,1.15c-3.46,2.21-4,7-4.27,8.85-.91,7.47-.6,39.08,1,82,0,0,1.88,8.51,6.76,12.38,3,2.43,6.69,2.56,9.24,2.62,18,.43,41,0,43,0-2.54.9,5.54-1.39,7.32-3.41a8.28,8.28,0,0,0,1.68-5.59c0-5.64.09-45.37,0-100,0,0-.22-5.08-2.6-7.7-1.18-1.29-2.91-2-5.4-2.3-85.32-9.88-170-6-170-6-57.29,2.62-85.94,3.94-110,1a240.52,240.52,0,0,0-70,2c-8.66,1.53-13,2.33-16,4-22.71,12.83-14.73,58.49-10,131,3.73,57.26,3.82,109.18,4,213v15s0,3.42,1.46,5.26a6.05,6.05,0,0,0,3.54,1.74c130.3,22.09,241,12,241,12,134-16.75,201-25,250-7,49.86,18.36,72.21,45.5,105.5,34.5,48.85-16.13,43.37-87.61,91-101,36.41-10.23,79.45,20.34,100,51,35.38,52.8,25,137.11-23,165-38.4,22.31-100.54,8.31-111-19-4.74-12.38-.42-31.58,13-40,12.29-7.72,30-5,40,5s9.11,24.54,9,26c-2.17,29.06-39.65,34.58-58,65-9,14.89-16,40.15-2.5,84.5,0,0,7.14,49,10.19,81.22.25,2.66.83,8.78.81,8.78s-1.45-13.29-2-20c-2.24-27.28-5.28-64.26,12-75,10-6.2,26.42-3.46,30,4,3.27,6.81-3.43,19.2-13,24-15.36,7.71-27-9.67-46-5-21,5.17-20.71,29.94-38,32-16.14,1.92-31.87-17.8-44-33-20.43-25.6-22.25-43.59-33-44-12.35-.47-13.57,23.15-32,28-22.43,5.9-46.06-22.42-56-14-1.72,1.45-2.17,3.32-3,7-3.61,16,3.67,28,8,42,1.31,4.23,12.16,40.4-2,52-9,7.34-24.34,1.93-27,1-4.18-1.47-18.35-6.44-19-17-.46-7.54,6.18-14.55,13-17,10.43-3.75,22.11,2.88,27,11,8.57,14.22-3.65,33-5,35-15.11,22.52-49.55,27-74,22-26.56-5.44-58.56-25.64-61-51-2-21.13,18.09-28.84,14-51-4.41-23.86-31.52-35.4-33-36-16.73-6.84-38.2-5.81-40,0-1.39,4.49,8.38,13.78,18,14,14.63.33,25.06-20.39,28-34,1.32-6.12,4.72-21.87-4-33-11.2-14.3-32.27-8-45-26-2.22-3.13-5-8.13-4-9,1.22-1.07,7.16,5,15,10,13.31,8.46,29.82,12.31,31,10,2.28-4.46-48.55-40.2-57-32-2.11,2-1,6.22,0,10,7.47,29.28,15.83,62,5,76-7,9-22.62,11-32,6-5.55-3-11.55-9.83-10-16,1.72-6.82,11.89-9.69,19-9s12,5.11,14,7c8.55,8.09,14.25,23.18,10,35-4.11,11.43-14.53,11.49-49,31-28.28,16-32.87,22.54-34,29-2.07,11.83,8.74,16,7,27-2.89,18.35-35.94,26.53-58,32-28.13,7-37.42,2.24-41,0-2.26-1.41-12.54-8.26-14-21a27.73,27.73,0,0,1,12-26c14.57-9.55,31.35.93,33,2,.68.44,15.58,10.38,15,24-.79,18.61-30.16,36.27-54,29-14.23-4.34-26.12-17.44-28-32-2.43-18.76,12.5-34.23,20-42,10.38-10.75,16.89-11.32,29-26,8.61-10.44,11.07-17.12,12-20,1.84-5.69,7.06-21.8-2-31-4.28-4.35-11.86-7.26-18-5-10.76,4-12.2,21.93-13,32a92.09,92.09,0,0,0,1.5,22.84s.22,1,.48,2.16c25,106.12,39,138,39,138,.82,1.86,3.12,6.91,1,11-2.79,5.39-11.59,5.92-13,6-17.26,1-22.1-21.47-47-36-3.84-2.24-34.37-20-59-10-7,2.87-17.67,9.68-35.07,10.91a55.47,55.47,0,0,1-8.93.09c-20.4-1.66-28.52-16.32-41-20-17.77-5.25-38.08,13.68-46.48,21.5-40.06,37.32-144.75,193.58-66,331,43.69,76.24,120.2,155,195,132,40.42-12.43,98.58-47.07,97-87a77.43,77.43,0,0,0-12.87-39.63c-7.72-10.58-18.5-17.57-31.63-23.87-25-12-30-10-36-9s-18,1-24-1-12-8-9-11,15-3,19-2,9,2,9,5-8,3-12,3-18,0-18,4c0,8.14,4.07,16-1,30-.54,1.49-3.92,10.43-13,15-7.44,3.74-14.7,2.54-18,2-1.72-.28-8.06-1.46-16-7-13.07-9.11-18.78-21.86-21-27-2.82-6.51-9.69-22.38-5-42,1.53-6.4,6.18-25.82,24-35,21.71-11.19,44.82,2.16,48,4,3.5,2,16.88,9.75,24,25,5,10.72,6.42,23.21,14,27,4,2,8,2,7-3s-11-26-20-36-19.94-18-25.5-20.5-10.53-4.5-16.53-5.5-9,0-6,1c12,4,25,3,25,3,16.45-2.2,34.85,16.62,42,26,0,0,20.3,26.61,11,61,0,0-1.73,6.41-9.33,17.35a2.76,2.76,0,0,1-.67.65c-.1.07-.15.1-.16.09-.31-.11,2.18-6.75,4.16-14.09,0,0,2-7.37,1-13-.08-.48-.33-1.91-.58-1.89s-.42.56-.42,1.89c0,0-1,23-6,29s-8,10-10,11-4,0-2-2,9-11,10-35c.08-2,1-4,1-2,0,2.23.08,3.23.08,3.23-1.34,12-2.08,14.77-2.08,14.77-2.64,9.85-4.88,18.19-12,25-8.91,8.53-20.14,9.56-25,10-15,1.37-26.09-4.75-32-8-13.35-7.34-22.94-18.65-22-21a.71.71,0,0,1,.26-.35c1.35-.9,5.57,5,10.74,8.35a26.9,26.9,0,0,0,15,4c1.6,0,11.54.46,19-7a27.53,27.53,0,0,0,3.52-3.56c7.41-10,3.7-25.63,2.48-30.44-1.93-7.64-6.44-25.45-23-34-2.57-1.33-17.07-8.81-30-2a25.9,25.9,0,0,0-9,8l-3,6s-3,15-6,14-5-9-8-11-15-3-20-4-9-1-9,5,2,19,6,23a22,22,0,0,0,15,6c5,0,12,1,13-2s0-8-1-13-3-12-5-11-1,8,0,13,1,8-2,9-14,0-27-8c-5.45-3.36-8-7-14-11s-10-7-17-15-7-22-7-24-1-21-1-21a38.69,38.69,0,0,0,7,17c6,8,15,13,18,16s7,11,9,12,4,1,4-2-5-11-11-15-18-15-20-21-1-18,4-23,44-56,213-49c37.18,1.54,44,14,43,17s-8,17-11,17-14-3-22-4-52-7-73-5-66.38,9.15-96,21c-15,6-25,8-41,25-1.94,2.06-5,5-7,5s-3-6-1-10,34-48,149-54c34.95-1.82,73,3,79,4s20,1,26-6c1.27-1.48,3.05-3.17,5.43-3.18,4.67,0,8.36,7,11.57,14.18,6.65,14.82,10,22.23,12,35,2.58,16.24,9.15,57.52-7,66a16.51,16.51,0,0,1-12,1c-12.07-3-16.54-17.43-17-19,0-.09-8.23-16.38-10-35a54.71,54.71,0,0,1,0-12c.83-6.84,2-16.81,9-20a12.88,12.88,0,0,1,12,1c5.49,3.65,6,11,6,22,0,5-2,20-5,23s-7,1-9-2-5-22-4-27a33.58,33.58,0,0,1,5-12c2-3,3-13,3-18s0-15,5-19,16-6,23,5,18,38,13,88c-.41,4.1-6,28-14,32-2,1-2-2,0-3s9,2,14,0a19.81,19.81,0,0,0,11-11c2-5,7-20,5-56s-5-36-7-41-4-12-7-15-6-5-10-5-3,1,0,2,12,1,18,14c3,5,3.72,5,6.86,5.5s9.14,7.5,11.14,14.5,6,27,4,46-9,21-9,21-2,1.35-2.75.72a1.06,1.06,0,0,1-.25-.72" transform="translate(-0.01 -0.27)"/></svg>