<svg id="Layer_1" data-name="Layer 1" xmlns="http://www.w3.org/2000/svg" viewBox="0 0 1548.23 367.44"><defs><style>.cls-1{fill:none;stroke:#000;stroke-miterlimit:10;}</style></defs><path class="cls-1" d="M0,504.61c32.32-11.11,51.64-6.91,63.37-.88s18.77,15.33,40.52,23.78c10.18,4,25.33,8.39,27.3,4.84,1.4-2.51-5.59-5.9-9.69-14.53-9.5-20,6.29-47.29,9.25-52.4,6.44-11.15,10-11.57,11.23-19.27.83-5.35-1.37-13.6-5.78-29.89-2.9-10.69-4.36-14.9-2.48-20.48,1.8-5.32,6.41-11.25,10.07-10.57,2.15.4,3.4,3,4,4.13,1.79,3.68-.57,5.86,0,9.91.7,5,4.91,8.24,7.92,10.57a26.48,26.48,0,0,0,11.89,5.12l1.82-160.84-7.1-7.27L168.07,234l1.32-31.38,6.44,4.46,10.73-.33,1.66,23.62,5.94,17-6.61,6.6.34,170.42-17.51,1.32-5.12-5.45s-17.83-7.43-19.65-14.86a115.47,115.47,0,0,1-2.48-15.85s-4.79,4.13-4.62,6.11,0,14.86,0,14.86a49.51,49.51,0,0,1,9.08,23.62,33.94,33.94,0,0,1-.82,12.88c-1.75,6.36-5,10.28-7.27,13.21-1.34,1.76-11,14.67-14.7,28.9-1.1,4.25-4.29,17.29,1.82,29.39,3,6,8,11.09,9.25,10.4s-1.8-6.28-2.81-14c-1.25-9.63,1.28-17.26,3.63-24.11,5.83-17,12-15.93,16.68-31.38,1.57-5.19,4.12-14,1.82-24.27-2.17-9.7-7.69-16.41-7.27-16.68s2.86,2.9,12.55,16.68l.5,11.39,33.19.33v-16H161.63V470.1l33.52.49V455.23l-35.5-.16.49,18,3.8,2.47h32.2v9.58a14.56,14.56,0,0,1-3,2.48c-1.65,1-26.42.83-26.42.83s-3.14-1-3.31-2.32-.16-8.42-.16-8.42-1.16-3,2.48-3,20.31.16,20.31.16l.16,9.42-5.78.16.83-250s0,7.27-2.15,5.29-3.63-22.29-3.63-22.29l-.66,265s-1,3.3-3.47,3.63-2.31-1.81-2.64-4.29,30.05,0,30.05,0a24.77,24.77,0,0,1,5.78,1.32,24.42,24.42,0,0,1,9.88,6.59,21.31,21.31,0,0,1,3.5,5.3c2.46,5.51,1.48,11.2.17,16.18-4.19,15.9-11.44,23.33-9.91,24.78s12.9-4.55,19.48-15.36c1.94-3.19,7.5-13.41,5.45-25.93-1.53-9.34-5.66-10-16.35-31.21-4.48-8.9-6.72-13.41-6.6-16.84.32-8.93,6.8-12.82,7.6-25.77.27-4.49-.24-8.4-.67-8.42s-.34,4.09-2.47,8.42c-1.84,3.75-4.13,5.21-6.11,7.27-8,8.33-6.49,21.69-5.62,29.39.46,4,1.39,7.6,3.8,8.59,1.49.62,2.43-.21,4.62.5.3.09,4.06,1.36,5,4.62,1,3.46-1.64,8-5.12,8.42-4.47.6-8.37-5.71-7.27-7.92.79-1.58,4.66-2.21,7.1-.66,4.56,2.89.53,11.13,5.78,16,2.63,2.45,5,1.63,6.61,4.46,1.41,2.45,1.53,6.31-.66,8.59-3.35,3.48-10.39,1.44-11.56-1.49-.92-2.3,2.28-3.87,2.31-7.59,0-5.2-6.15-9.16-9.91-11.56a40.58,40.58,0,0,0-18.49-6.11l-1-59s7.76,5.62,12.38,5,12.72-11.34,15.86-11.4c9.08-.16,9.57,3.64,9.57,3.64s3.14,4.95,1,8.58-9.74,18.12-9.08,23.45c.5,4,5.78,17.84,10.74,23.95s14.2,19.65,13.21,31.37-2.48,19-5.45,24.94c-6.69,13.37-21.09,16.78-26.76,18.5-6.72,2-12.07,2.18-22.78,2.47-15.63.43-25.38-1.39-25.44-1s13.42,3.57,30.09,3.47c12.33-.07,18.49-.1,24-3.37,3.9-2.32,7.71-6,16.12-9.68a42.6,42.6,0,0,1,6.11-2.31c13.19-3.48,27.43,6.25,36.66,12.72,10.75,7.54,8.5,8.65,15,11.89,15,7.45,34.14,5.09,35.34.33.43-1.75-1.76-2.9-4.13-6-9.65-12.41-3.64-32.51-2.15-37.48,4.85-16.21,11.83-15.16,13.87-29.56,1.47-10.32-.81-20.14-1.48-23-2.13-8.84-4-8.64-5.95-17-1.29-5.52-4.62-19.84,2.81-28.07,2.73-3,7.26-5.63,9.58-4.29,2.63,1.51-.18,6.64,2.47,13.21,2.35,5.8,8.52,11.66,14.7,10.9a11.13,11.13,0,0,0,6.44-3.47l3-148-4.29-4.13-.5-7.27,13.55-39s3.63-7.1,9.24-7.1,8.59,3.14,8.59,5.45v5.94L378.62,246l5.12,24.28L374.49,279l2.81,175.38A2.07,2.07,0,0,1,377,456a2.13,2.13,0,0,1-1.34.69c-11.19,1.87-16.78,2.8-18.66-.17s1.84-6.08-.33-10.23c-1.37-2.6-4.5-4.57-6.11-3.8s-1.37,3.72-.83,11.89c1.07,16.17,1.26,16.29,1,18.16-1,7.39-4.1,6.81-7.27,17-2.21,7.14-4.42,14.25-1,19,2.78,3.83,7.27,3.41,9.75,8.26a12.56,12.56,0,0,1,1.15,6.94l25.6.33s4.46-11.73-.5-11.73S355.5,512,355.5,512s.33-13.21.16-13.71-2.64-2.8,2.32-3S377.3,499,377.3,499v3.47c0,3.64-5.62,2.31-12.06.5s-10.73-1.16-10.4-10.9.49-10.74.49-10.74-1.32-1.81,3.8-1.81,18.5.33,18.5.33c.33,5.28-1.82,6.27-1.82,6.27L359.63,486s-5,3.3-4.63-9.74,1.66-14,1.66-14l20,.16s1.15-1,1.15,3-4.79,3.13-4.79,3.13l-15.52.17s-2.15-2-2.15-8.92,14.7-8.26,14.7-8.26l5,.67-1,66.22a3,3,0,0,1-2.8,1.81c-2-.16-2.48-.66-2.31-3.14s.49-264.22.49-264.22S370.53,269,363.92,269l-1,248.2s.17,2.31-3.14,2.64-2.14-4.29-2.14-4.29c5.52-1.19,18.17-3.32,30.55.33,4.17,1.23,7,2.07,10.24,4.46,5.49,4.09,5.83,8.12,10.56,9.58,3.47,1.06,8,.37,9.58-2.15,1.75-2.85-.83-7.3-2.31-9.91-10.45-18.44-15.67-27.66-15.85-35-.06-2.49,2.65-10.63,8.09-26.92,1.6-4.79,3.72-10.88.82-15.85-1.54-2.66-4.5-5-5.78-4.29s0,3.38-.66,7.26a16,16,0,0,1-7.26,10.74c-7.05,4.24-14.82.52-15.53.16-4.28-2.14-7-6-6.6-6.44s3.2,2.6,8.09,3.8,12.29.74,15.19-3.47c2.42-3.49-.45-6.5,2.32-11.23,1.26-2.15,4-5.23,7.1-5.12,4.72.17,8.61,7.79,8.91,14.21.23,4.66-1.52,7.09-3.79,13-.34.88-4.63,12.29-5,20.81-.44,11.58,6.63,13.1,13.38,33.19,3.21,9.58,5.14,15.31,4,22.95-2.35,15.22-14.81,23.71-15.69,24.28-6.95,4.58-14.58,5-29.56,5.78-19.87,1-33.3-1.18-33.35-.66s13.28,3,29.39,3.47c15.08.43,21.59-1.22,24.28-2a49.23,49.23,0,0,0,17.67-8.43c4.17-3.24,4.63-4.84,10.4-9.9,1.24-1.09,7.63-6.7,12.88-9.58,8.59-4.72,17.56-3.75,35.5-1.82,14.14,1.52,20,3.72,28.08.17a29.08,29.08,0,0,0,9.41-6.77l53.34-52L578.1,478l32.54,48.06L608,528.39l-31.54-45.58-9.41.5-44.26,45.57s-.36-2.83-4-2-7.43,4.3-5.78,6.44,5.45,3.64,7.6,1.32,2.14-3.79,4.13-4.45a8.74,8.74,0,0,0,5.11-3.31c2.15-2.47.17-2.47,4.13-2.8s.5-1.66,2.81-1.66,16.84.33,16.84.33l24.77,9.75c14.37.2,22.42-1.17,27.25-2.64a11.78,11.78,0,0,1,7.27-.17c3.8,1.29,7.53,5.26,6.6,7.93-1,2.93-7.63,4.26-9.9,2-3-3,.1-13.64,6.27-15.52a7.85,7.85,0,0,1,4.29,0v-41l40.3,58.13s3.3-3,6.6-.33,7.93,6.27,6.28,8.59-4,5.28-9.25,3.3-3-16.84-.66-16.84-39.3-57.8-39.3-57.8h-3l-.67-112.63s4.3,8.26,6.94,6.61,4.29-7.27,4-8.92-2.64-5.28,0-5.28a6.64,6.64,0,0,1,5.29,2.31c.66,1,19.15,2,20.15,0s2.64-6.61-7.27-10.24-32-9.25-36-5.94,7.27,10.56,10.57,11.23,3.74,1.1,3.74,1.1l-3.85,3.85-3.75-9.8.22-12.77,4.08-4.29,1.43-1.43.11-8.92a12.82,12.82,0,0,1,2.42-.88c4.62-1.17,7.72.84,9-.55,1-1.06.21-3.27.09-3.63-2.55-7.24-17.4-7-21.45-6.94-.9,0-2.69.07-3,.88-.57,1.6,5.75,3.46,7.71,9,.18.51,1.44,4.28-.34,6.93-2.29,3.43-8.3,3-10.89,2.75-17-1.34-38.7-19.87-35.45-27.41,1.89-4.41,12-4.4,22.79-4.4a95.16,95.16,0,0,1,18.6,2,162.53,162.53,0,0,1,49.76,19.93,21.59,21.59,0,0,1,7,7.26c1,1.78,2.73,4.7,1.69,7s-4.72,2.85-7.86,3.17c-14.72,1.49-21.13.66-21.13.66-18.08-2.35-26-6.36-28.3-3.08-1.47,2.08,1.15,4.49-.44,10.9-.74,3-1.57,3.52-2.09,6.49-.48,2.73-.18,4.5.44,8.92,1.91,13.68,1.66,15.54.55,17.28-1.4,2.21-3.06,2.52-3.19,4.52a6.09,6.09,0,0,0,5,5.83c2.89.52,6.21-1.31,6.39-3.3.2-2.36-4-5.38-6.17-4.51s-1.71,4.8-1.65,19.92c0,7.89-.08,31.56-.11,23.67a7.75,7.75,0,0,0-2.75,4.41c-.59,3.07.83,7.23,3.74,7.81,3.29.66,7.06-3.52,6.39-5.72s-5.31-3.12-6.94-1.54c-.95.92-.7,2.61-.6,3.29.41,3,.39,12.93.34,32.82,0,2.3-.08,6-.51,10.68l-40.62,39s-3.09,2.53-4.63-.33-.88-94.46-.88-94.46,1.43-4,3.86-3.3,4.84.22,4.84,4.07-4.51,5-4.51,5-4.41,3.2-4.3-12,.33-11.11.33-11.11-3.08-4.63-1.32-7.27,6.06-1.76,6.06-1.76a3.44,3.44,0,0,1,2.09,3c.33,2.42-.66,5.62-2.86,6.28s-5,1.65-4.85-12.89.55-11.44.55-11.44,2.86-3.09,5-2,3.85,1.55,3.3,5-4,2.93-5.29,2.73-3.41-6.14-3.08-12.42a12.85,12.85,0,0,1,4.52-9.36s2.86,1.21,3.41-.44a4.54,4.54,0,0,0-.11-3.08s3,.44,3.19-1.54a69.17,69.17,0,0,0-.22-7.71s-2.2-2.42-2.86-.88-2.2-2.31-2,6.94c.08,3.48,3.32,5.12,2.61,7.22-.09.27-.35.93-.19,1,.55.36,2-1.65,1.54-1.21,1.72.39,4.18.92,7.16,1.43a65.64,65.64,0,0,0,10.12,1.32c.69,0,12.6.16,13.88-4,1-3.24-5-7.75-7.58-9.69-5.84-4.39-10.35-5.66-30.85-10.9-12.17-3.11-18.46-4.62-23.56-1.1a5.55,5.55,0,0,0-2.64,3.2c-1.12,5.39,10.32,14.3,22.24,16.95,6.6,1.47,12.29.79,12.55,2.31.2,1.15-2.88,2.66-5.83,3.86l-.44,8.58s1.76,5.84,5.17,4.63,19.21-4.13,19.21-4.13l28.07-6.44s8.26,1.81,3.8,3.13-29.06,5.29-29.06,5.29-6.61-4-.66-5.62,5,3.64,5,3.64l-26.58,6.93s-4-2.27-3.64,5.12.5,123.69.5,123.69-9.42,16.68-18.17,21.3-9.58,4.63-11.06,5.29-2.64,7.59.33,8.25,9.91.67,11.72-2.14,2.32-8.59,1.49-9.91,0,2.31,3.3-.66,51.53-52.35,51.53-52.35l2,44.59s6.27-.17,10.07,1.81S643.66,537,643.66,537h28.08a64,64,0,0,0,13,6.93c2.19.85,36.9,13.72,64.9-7.59,17.1-13,33.15-39.87,23.12-64.08a45.67,45.67,0,0,0-2.75-5.46c-.8-1.33-11.48-18.57-30.94-21.62-15.78-2.48-27.83,5.87-36.78,12.06-5.26,3.65-22,15.23-26.63,35.83a62.16,62.16,0,0,0-.22,24.29s.46,2.11,5.17,17.32a37.83,37.83,0,0,1-12.51-4.95c-16.69-10.44-19.45-31.15-20.18-36.66-2.47-18.51,3.7-39.29,18.82-53.5,13.05-12.27,27.8-15,33-15.86A68.07,68.07,0,0,1,744.73,432a65,65,0,0,1,27.74,31.37c1.07,2.63,9.15,23.24,1,45.37a61.89,61.89,0,0,1-17.52,25c.22.2,19.18-14,26.42-38.31C784,489.82,787.5,477.62,784,463c-5.42-22.84-24.81-39.07-43.93-44.91-3.35-1-22.8-7-40.65.46-2.7,1.12-8,3.64-8.23,3.17s7.27-5.35,14.21-9.58l-104.59-3.52s-2.2-3.52-2.42,12.11-1.1,40.95-1.1,40.95-.89,2-2.65,1.76-5.28-.44-3.74-20.91,2.42-18.72,2.42-18.72,1-2.86,3.31.22c1.66,2.19.44,46.46.44,46.46s-.22,7.27.44,7.49,48,1.76,48,1.76l1.76-6.83-41.84-1.54s-3.52,4-3.08-7.48,3.08-46.68,3.08-46.68-.54-4.63,4.85-4.41,46,1.32,46,1.32a29.6,29.6,0,0,0,3.75-11.23c.44-5.72-8.37-2.64-8.37-2.64s-2.2,3.75-.44,5.51,9,4.18,9.47-8.59,3.08-36.33,3.08-36.33-3.3-2.86-4,2.2-2.2,18.94-2.2,18.94,5.06,11,8.36-24.66l.88-11.23s-2.86-4.19,9.69-5.29,36.11-.66,36.11-.66,15.63,1.1,16.52,7.93S727,381.75,727,381.75s5.73,3.08,6.17.44.44-20.26.44-20.26-6.61-1.76-7.27.22S725,380,725,380l-.22-27.09S715.33,347,705.21,347s-31.71-.66-33.47,2.86-5.07,39-5.07,39,4.19-4,8.81-4.18,28.62-.44,28.62-.44,20.26,4.18,20.26,5.72-.22,6.61-.22,6.61-2.64-3.52-15.41-5.73-30-1.1-32.81.22-11,3.09-12.11,6.17,8.81,8.37,8.81,8.37,28.84,4.62,41.83,1.54S729,402,729,399.8v-7.7s-3.09,2.42-2.65-1.11a43.13,43.13,0,0,0,.22-7l7.05.44-.33,12.66s1.1,3.08,7.7,4.18,30.94,1.21,30.94,1.21,14.86-2.64,17-5.72,2.65-6.17,2.1-8-4.3-1.87-4.3-1.87l-.66,4.63a24,24,0,0,1-10.13-2.65c-5.61-2.75-26-.44-26-.44s-13.32,3.2-13.65,4.3.22-4.52.22-4.52,7.82-4.29,11.45-4.29,27.85-.22,27.85-.22,10.46,4.4,9.14,1.32-.77-32.59-.77-32.59-.11-4-23.56-3.08-26.53,6.39-26.53,6.39l-.33-6.5s7.82-6.06,17.06-6.28,23.7.22,23.7.22,14.62,2.87,14.84,4.74-.11,41.06-.11,41.06l3.85,1-.77-13.32s-5,4.3-5.07-9.36.44-11.55.44-11.55l9.36-.11s4.85,18.82,2.75,19.92-2.42,2.09-4.07.11-2.2,2.75-2.2,2.75l.33,18.72s-3.3,1-.22,3.19,3.85.66,3.85.66-5.94-7.26.22-6.6,6.83,5.94,6.83,5.94l-6,3.31s-51.74,6.38-52.84,7-.44,5.29-.44,5.29l35.23-5.07,34.35-.44,2,24.66-39.63,4.85,1.1,2.86,15.19-.22s2.45,1.56,3.08-1.76-2.86-3.75-1.54-6.17a7.89,7.89,0,0,1,4.18-3.3s4.63.45,4.85,2.86.66,6.61.66,6.61l15.63-1.55V413s4.18,1.54,4,4.85,0,20.91,0,20.91,4.19,3.53,0,4.19-6-.22-6-.22l-27.74,12.33,7-10.25-1.1,46.8-36.77,54.6s-8.59,2.87-9.47,8.81,10.57,3.3,10.57,3.3,3.08-5.94,2.86-8.58S797,498.22,797,498.22l-.22,26.21s2.42,2.42,4.41,1.1S803.85,498,803.85,498l48.22,46.9a5.63,5.63,0,0,0,0,4.19c.88,2.42,5.94,5.5,5.94,5.5s4.41.44,4.85-3.52S858,541.6,858,541.6a12.94,12.94,0,0,1-3.08,0c-1.32-.22-47.34-48.44-47.34-48.44l-5.28-.44.44-89.17,15,.66s-19.82,1.32-20.48,1.32-.22-26.65-.22-26.65l-1.32-30.82s9.38-6.31,16.73-7.71c4.63-.88,19.82-2.86,26.21-1.1s4.62,10.35,4.62,10.35l-3.08,3.74s-4.85.88-4.63-4.18S839.3,343,839.3,343s.66-17.17,2,19.16.44,70.24.44,70.24-3.3,2.86-6.17.44.27-10.13,3.31-10.13,7.48,1.54,6.6,4.62S831.37,439,833.57,423.8s2-5.06,2-5.06l.22-101.29a19.25,19.25,0,0,1,10.57-5.72c6.61-1.1,31.93-15.19,33.25-21.14s2.86-9-8.37-10.57-32.8,1.32-37,2.64-33,9.69-41,17-11.89,7.26-10.35,15.63,32.59,4.85,32.59,4.85l15.85-3.31-.44-5.94s3.08-3.3,1.76-4-3.08-5.5-3.08-5.5a23.48,23.48,0,0,1-15,1.54c-8.15-2,11-9,11.89-9s7.92-3.3,17-3.08-2,6.39-2,6.39l-7.27,3.08.66,4.18s4,5.51,6.39,5.29,1.32,6.38,1.32,6.38-2-1.32-2.2,1.54S843,357.42,843,357.42s5.5-6.61,14.42-6.61,38.64,4.07,38.64,4.07l-35,1.11.89-31.93-.44,35s-.45-3.74-4.85-3.3-9.69,1.32-9.69,1.32l49.1,2.42s-29.72,6.82-34.12,6.6-15.64-5.94-15.64-5.94l32.81.88-16.73,1.32a12.49,12.49,0,0,0-3.53,7.27c-.44,4.4-.44,7.26,2.2,6.38s6.17-2.2,4.63-4.84-6.83-11.89-6.61,9.91,1.1,15.85,1.76,16.29,6.61.44,5.29-5.72-9.91-.67-9,2.42,1.76,24.22,1.76,24.22l-.66,9.91s8.37,2.86,6.83-2.65-7.93-4-7.93-4l1.32,50.2-16.73,14.09,2-103s5.06-3.08,5.06-5.07-2.2-34.79-17.61-34.34-33,9.46-33,9.46l5.73,23.78s19.27-7,25.54-5.94,15-.51,15.19,4.26-20.26,1-21.14,1.24-19.15,4.81-20,9.34S821,389.89,821,389.89s16.79-1.32,18.72-8.14,3.24,3.74-.44,5.72-2.43,4.63-2.43,4.63L836,491l-31,33.25s-11,5.72-10.79,9.68,6.16,3.75,6.16,3.75,8.59-4.19,6.61-8.81,19.16-21.36,19.16-21.36l-33,44.92a6,6,0,0,0-6.61,3.3,51.36,51.36,0,0,0-3.74,8.81,5.82,5.82,0,0,0,7.27,1.1c4.18-2.42,4.62-4.4,5.72-7.93s35-52.84,35-52.84l5.72-7.93-1.76,41.4s2.87,3.08,4.19.66,2-41.84,2-41.84l55.26,55s-.44,7.48,5.07,7.93a24.68,24.68,0,0,0,10.79-2s1.32-.44-2-4.84a15.79,15.79,0,0,0-8.37-5.51L843.26,491.4l13.43-13s3.3-.88,2.86.66-.46-115.41-.46-115.41l4.54.91v53.09s3.71,1.08,3.46,4.88-3.55,3.46-3.55,3.46l1.33,46.16s39.63,55.24,39.88,55.57,10.9,6.85,9.57,9.08,1,4-4.45,5.62-9.17-6.2-9.17-6.2l.17-6.93-35.43-51.94s-7.1-3.3-7,3.39.33,23.53.33,23.53,4.54,5.94,5.78,2.39.16-31.62.16-31.62l1.07-3.72,2.48.75,36.41,57.3s11.89,9.66,20.56,11.23,29.81,1,29.81,1a60.4,60.4,0,0,0,22.54-13.21c9.91-9.58,16.85-18.83,29.07-19.16s18.82,3,19.81-3.63,4.63-99.41,10.57-100.07,39.63-4.3,42-1,0,74-5,74.64-24.77,4.62-24.77.66,7.6-80.59,7.6-80.59-3.31,68-1.65,68.37,15.85-.33,15.52,2-9.25,9.25-9.25,9.25,0,28.4-3,30.38-30.39,1-30.39,1l-.66,19.49a5.27,5.27,0,0,0,4.63,3c3.63.33,27.41-.66,27.41-.66l2.64-4.62.66-16.85,30.06-1.65V478.19s10.9-4.3,10.24-6.61-16.52-3.3-16.52-3.3,2-62.42-.66-67.38-6.6,76.63-5,77.62,25.43.66,25.43.66l5.61-74s-8.25-2-14.53-1.32-4.29,2.64-4.29,2.64,25.43,0,28.73-1,3.63,2.64,3.63,2.64l-2.31,124.18-55.48,1s-1-4.29,7.92-4,17.84,1,17.84,1V511.88s2.64-3,8.59-3,49.54.66,49.54.66,3.79.17,3.46-6.44,0-25.59,0-25.59,8.24-3.64,8.57-6.11-14.53-2.15-14.53-2.15l-2-50s-1.32-13.54-5.12-17.5,1.15,76.13,1.15,76.13l2.32,2h19.65l2.64-2.31-1.65-71.84s-6.28-3-16.52-.82,43.93.66,43.93.66,3,0,3.14,8.25,2.48,62.76,2.48,62.76,2,4.12-9.75,3.79-14-.49-14-.49-3,3.14-3-14.37-2.64-65.23-2.64-65.23a59.3,59.3,0,0,1,6.77,26.92c0,15.19,1.49,41.28,1.49,41.28s1.32,1.49,2.31,1.49,14.53-.16,14.53-.16,3.47.66.66,2.47-9.08,2.81-9.08,4.79.33,31.05.33,31.05l-29.23,1.15s-2.48-1.15-2.48,3.8V530.7s-11.23-1.82-14.53-1.49-10.9,3-10.9,3H1184s2.48-.83,2.48-5.62-.33-16.84-.33-16.84l34.84-.83s-5.12-32.69-3-33.69,6.77-.33,7.43-2a5.43,5.43,0,0,0,0-3.46l-14.2.16s-.82,6.77-2.48-13.54-6.77-56-9.57-55.49,6.77,77.78,6.77,77.78l21.46.66s4.13-1,4.13-2.64,0-7.76-2.31-7.93-5-63.57-5-63.57-11.07-2-18.83-1.16,14.53,2.81,14.53,2.81,14.87-1.49,18.33-1.82,4.63,3.14,5,5.78,13,96.94,13,96.94-3.13-.5-3.63,3.3-.66,20.64-.66,20.64l-34.51.66s-11.23-4-14.87-3.63-11.06,2.15-12.55,3.3,30.22-1,30.22-1L1219,506.59l48.88,1s15.75,5,16.63,11.56,23.34,22.9,29.06,23.78,18.06,4.4,23.34.44,31.27-12.77,35.23-11.89,0-22.46,0-22.46-2.2-9.69-4.84-10.13-1.33-13.65,0-15,.44-22.46.44-22.46l1.87-2.31-.88-27.08s2.42-1.1,2.31-1.87-5.29-3.75-5.51-6.39-.11-9.58-.11-9.58l4.74-6.16s2.31-5-.11-7.6c-4.39-4.78-9.86-5.87-14.86-11.34-1.92-2.1-4-5.53-4.52-16.51-1.5-28.93,10.25-49.94,14.89-69.9a17.21,17.21,0,0,1,1.52-4.19c3.68-7.08,11.64-9.7,15.63-11a43.34,43.34,0,0,1,18-1.76,50.27,50.27,0,0,1,18.61,5.17,45.43,45.43,0,0,1,15.19,12.55c6.53,8.78,7.92,19.29,7.27,33-1.62,33.83-14.43,60.78-15.08,60.55-.48-.17,5.7-14.15,9.9-39,3.47-20.46,5.11-30.89.66-41-8.19-18.54-28-24.35-30.27-25-3.78-1-16.19-4.48-27.41,1.76-4.32,2.41-9.47,6.8-8.59,8.92,1.21,2.92,12.35-2.1,26.09-.44,19.87,2.4,33,17.27,32.7,17.73s-12.11-9-30.61-13.66c0,0-6.36-1.59-22.46-.16a10.12,10.12,0,0,0-6.5,2.78c-.3.31-1.59,1.68-1.2,2.45.55,1.11,4.19.21,6.71-.22,0,0,3-.51,15.42.33,14.87,1,35.93,12.86,35.67,13.43-.18.37-9.16-4.7-25.22-8.7,0,0-5.84-1.45-28.17-1.15a7.79,7.79,0,0,0-4.63,1.48c-1,.81-2.26,2.27-1.87,3.09.52,1.13,3.89.57,5.5.33a92.69,92.69,0,0,1,22.57,0c4.32.54,7.83,1.94,14.86,4.73,10.56,4.19,17,8.44,17,8.59s-15.56-11-33.14-10c-2.2.12-2.68.33-5.73.44-12.49.45-20.33-2.54-22,.33a2,2,0,0,0-.21,1.69c.61,1.17,3.41.81,4.18.73,6.83-.73,26.93,2.13,37.76,5.51,10.65,3.32,17.62,8.79,17.5,9s-8.09-4.71-20.25-8.14c-11.22-3.17-19.34-3.17-26.51-3.11-3.36,0-13.69.11-14.12,2.56a1.64,1.64,0,0,0,.47,1.21c1.88,2.4,7,1.26,9.43.88s7.65.54,17.85,2.42c16.92,3.11,31.11,11.58,30.93,12s-8.73-4.63-22.68-7.82c-19-4.35-37.77-3.05-38-1.21-.09.79,3.22,1.76,4,2,4.74,1.4,8.16.21,12.22-.08,3-.21,6,.44,11.78,1.74,15.1,3.36,30,12,29.73,12.55s-11.84-6.88-29.17-9.25c-9.34-1.28-7.81.61-18.76-.7-3.77-.45-8.34-1.19-10,1.14a2.88,2.88,0,0,0-.33,3c.91,1.36,3.85.85,5,.67,8.1-1.25,17.47,0,23.27.76a53.72,53.72,0,0,1,13.66,3.86c9.36,3.7,15.94,8.67,15.74,9s-10.88-7.53-26.86-9.8a79.84,79.84,0,0,0-9.91-.66c-12.12-.26-23.81,1.45-23.78,2.43,0,.5,3.08.57,9.14,1.21,2.63.27,16.42,1.72,27.3,4.62,12.82,3.42,22.47,9.09,22.24,9.69s-13.55-5.64-33.91-8.81c-9-1.41-25.44-3.12-26-.77-.26,1.11,2.94,3.34,6.16,3.52a8.58,8.58,0,0,0,5.51-1.65c5.13-4,4-14.61,3.41-20.8s-1.74-8.73,0-10.35c2-1.92,7-1.43,8.15,1,1.2,2.6-2.27,7.07-3.86,6.71-1.83-.41-2.51-7.54-.66-13.54.91-2.95,1.38-2.19,2.43-5.39,2.12-6.49.49-10.42,3.63-13.87.31-.34,1.6-1.76,2.31-1.44,1.11.51-.36,4.71-1.1,10.9-.88,7.36.4,8.05-.55,13.88-.83,5.07-1.68,3.77-3.74,11.55-3,11.09-.82,12.16-3.72,17.63-.71,1.35-1.86,3.22-1.13,4.72.94,1.93,4.35,2,5.39,2.09,11.37.61,35.15,11.35,35.13,11.45s-10.9-3.28-25.22-6.05a138.73,138.73,0,0,0-20.91-2c-9.87-.23-11.09.74-11.67,1.54-3.3,4.55,4,17.6,14.2,23.67a34.38,34.38,0,0,0,9.58,3.74c4.84,1.24,11.53,3,18.27.44,4.07-1.52,5-3.39,7.71-3,4.23.64,7.81,5.92,6.71,7.93-.45.83-1.71,1.08-8,.55-13.11-1.1-19.67-1.65-23.56-3.2-1.45-.57-4.4-1.84-5.4-.77-.79.86.45,2.33,0,4.41-.56,2.62-3.07,2.88-5.06,5.28a11.81,11.81,0,0,0-.44,13.43c1.88,2.61,5.25,4.1,6.16,3.31s-1.43-3.44-1.32-8.15c0-1.65.13-5.21,2.65-7.05,2.74-2,7.46-1.26,8.58.88.94,1.81-1.39,3.24-1.76,7.05s1.17,9,5.51,11.23c4.56,2.35,9.6,0,10-.25l.19-.12a9.31,9.31,0,0,0,1.29-.95c.52-.46,5.28-6.9,2-13-1.6-3-5.31-6.23-9.25-5.51-4.81.89-7.35,7.23-6.61,11.89,1.13,7.08,10.07,11.84,13.87,9.91a3.83,3.83,0,0,0,1.17-1c3.69-4.1,2.77-9.07,4.56-14.88a20.64,20.64,0,0,1,5.06-8.81,52.24,52.24,0,0,0-6.17,14.09,44.5,44.5,0,0,0-1.09,13c.46,13.61,3.13,19.27,5.28,34.57,1.61,11.45,2.37,17.24.22,20.92-6.16,10.55-23.75,10-27.74,9.91-4.4-.13-11.1-.33-13.43-4.41-1.7-3,.55-5.2,1.54-13.43,1.16-9.6-.84-15.42,1.32-16.29s4.87,4.74,7.49,4c3.48-1,5.25-12.91,1.1-15.19-3.17-1.74-10.24,7.15-10.79,6.6-.36-.35,3.53-3.16,4.62-7.92,1.32-5.76-2.55-9.58-.88-11.67,1-1.22,3.77-1.78,11.89,1.32l-.44,40.29s-7.93,2.2-11.89-.88-1.32-47.12-1.32-47.12,11.45-1.76,18.5,2.2,5.06,2.65,5.06,2.65l.44,38.53-9.69,11.89s-14.53-4.4-14.75-2.2-.22,5.28,2.86,5.72,15.42,4.41,15.42,4.41,13-4,10.34,4.18-2.86,2.64-2.86,2.64l-1.32,25.1s20.26.66,22.46-.66,32.15-16.51,38.09-19.15,15.85-4.63,26.2-4.41,64.3-.22,64.3-.22" transform="translate(0.16 -201.65)"/></svg>