<?xml version="1.0" encoding="utf-8"?>
<!-- Generator: Adobe Illustrator 26.0.3, SVG Export Plug-In . SVG Version: 6.00 Build 0)  -->
<svg version="1.1" id="Layer_1" xmlns="http://www.w3.org/2000/svg" xmlns:xlink="http://www.w3.org/1999/xlink" x="0px" y="0px"
	 viewBox="0 0 1920 1200" style="enable-background:new 0 0 1920 1200;" xml:space="preserve">
<style type="text/css">
	.st0{fill:none;stroke:#000000;stroke-miterlimit:10;}
</style>
<path class="st0" d="M-2.6,358.7c4.5-0.4,11.5-0.8,19.9,0.3c29.4,3.7,39.4,19.1,69.3,32.7c23.2,10.6,41.8,19,62.6,13.6
	c13.1-3.4,20.3-10.5,50.9-20.2c11.3-3.6,17.7-4.9,23.2-1.7c10.5,6.1,11.1,24.6,11.4,32.7c0.6,18.6-5.6,22.8-1.4,31.3
	c6.8,14.1,29.9,15.2,34.3,15.4c3.4,0.2,24.6,1.2,28.6-8.4c3.4-8.1-9.7-14.4-10.1-29.7c-0.3-11.6,6.7-26.8,19.2-29.7
	c11.6-2.8,24.9,5.8,29.6,16.3c7.6,16.9-9,34.3-1.2,42.3c1.6,1.6,3.8,2.4,22.9,0.9c21.9-1.8,32.9-2.7,35.2-6.6
	c4.7-7.9-7.7-16.4-7.9-38.3c-0.1-5.6-0.2-19.9,7.3-23.8c8.4-4.4,17,9.4,30.4,6.6c10-2.1,18.9-12.6,20.5-24.4
	c1.7-12.5-4.8-25.9-14.5-29.7c-15.3-6.1-30.9,14.5-41.6,7.7c-5.2-3.3-5.9-10.9-7.3-24.9c-2-20.7,3.8-29.4-2-35
	c-2.7-2.6-8.5-2.7-20-2.9c-11.3-0.2-19.4,1.5-25.4,2.7c-8.2,1.7-12.3,2.6-13.4,4.3c-4.9,7.9,13.9,20.3,12,39.6
	c-0.2,2.2-1.4,11.6-8.9,17.7c-8.3,6.7-21.8,7.3-29.9,0.9c-7.5-5.8-8.3-15.7-8.8-22.5c-1.5-19.7,8.5-29.9,3.5-35.2
	c-2.7-2.9-6.7-0.9-25.3,0.7c-17.6,1.5-20.4-1.2-24.4,2c-4.6,3.7-2.9,8-4.8,34.3c-1.3,18.2-2.8,25.4,1.8,34.8
	c1.9,3.9,3.6,7.5,7.4,10.1c9.8,6.7,21-1.6,45.8-7.2c13.7-3.1,33.3-7.4,55-2c11.8,2.9,9.8,5.1,21.5,7.9c20.2,4.8,38.1,1,54.3-2.6
	c23.8-5.3,25-10,35.7-7.9c14.6,2.8,18.5,12.8,32.4,11.9c2-0.1,13.4-0.8,20-10.1c6.4-9,3.6-19.7,3.1-21.6c-0.7-2.3-2.9-8.9-9.2-13.7
	c-6.3-4.7-13.4-5-23.8-5.3c-13.9-0.4-16.6,2.4-20.7-0.4c-5-3.5-5.3-10.8-5.7-25.5c-0.5-14.4-0.6-22.8,4.6-26.4
	c2.7-1.8,4.8-1.1,15.2,0c26.8,2.9,33.2,0.3,36.3-1.3c3.5-1.8,8.2-4.3,9.9-9.2c3.7-10.9-12.1-19.4-10.1-34.2
	c1.2-9.1,8.4-14.6,9.5-15.4c12.3-9,34-5,41,8c3.5,6.5,3.4,15.5,0.2,22.2c-3.1,6.4-7.2,6.7-8.4,12.3c-1.4,6.5,2.5,14,7.8,18
	c6.1,4.5,12.7,3.3,26.1,2.3c23.2-1.9,34.8-2.8,39,0c10.9,7.3,2.7,28.1,0.7,66.9c-2.9,53.2,8.8,82.7-4.6,89.6
	c-4.6,2.4-5.9-1.1-34.6-2.9c-15.4-1-23.8-0.5-27.5,4.8c-2.4,3.4-2.1,7.6-2,8.8c0.5,7.5,6,8.7,8.9,16.5c3.9,10.8-1.9,21.3-2.3,21.8
	c-1,1.7-4.2,7.1-10.8,10.1c-8.6,3.9-18.6,1.9-25.3-3c-6.6-4.8-10-12.3-10.7-18.8c-0.9-8.3,3.2-10.9,5.2-26.1
	c1.1-8.4,1.7-12.6-0.2-15c-2.1-2.6-6.7-4.4-39.6,0.9c-14,2.2-18.2,3.4-22,0.4c-4.7-3.7-4.8-10.7-4.8-23.3c0-16.3,0-25.9,5.5-29
	c7.1-3.9,13.8,8.3,31.5,10.9c19.8,3,37-8.4,42.3-11.9c16.2-10.7,14.4-19,25.5-26c19.1-11.9,40,2.9,72.2,9.2
	c58,11.5,77-19.1,104.8-4.4c35.7,18.8,49.2,93,24.7,144.9c-36.6,77.3-148.8,86.2-169.1,87.9c-134.1,10.6-205.6-78.9-249.2-43.8
	c-32.8,26.4-31.4,108.7,11,140c45,33.2,128.8,4,151-51.5c17.4-43.5-6.8-93.6-36.1-119.8c-64.5-57.6-193.9-35-253.9,31.5
	c-70.1,77.7-44.6,272,44.3,406.2c118.9,179.7,381.5,227.1,440.8,237.8c14.2,2.6,48.3,2.9,69.1-13.2c23.8-18.3,38.9-42.5,33-48.4
	c-2.5-2.5-10.6-0.6-15.4,4c-12.9,12.1-2.7,42.7-0.4,49.3c4.8,14.3,9.2,16.9,8.4,26c-1,11.3-8.4,12.6-15,25.5
	c-12,23.7,2.5,39.5-10.4,54.2c-6.5,7.4-11.2,4.6-20.8,14.9c-5.5,5.8-15.5,19-11.9,25.1c4.8,8.1,32.8,1.7,52.4-6.6
	c8.3-3.5,32.2-14.6,64.7-53.3c19.8-23.5,41.9-49.8,54.2-91.2c4.1-13.9,22.7-76.3-0.9-92.9c-16.4-11.5-38.5,10.2-87.2,18.1
	c-41.1,6.6-72.7-1.2-110.5-10.6c-46-11.4-99.7-24.6-140.5-66.9c-54.7-56.6-55.2-133.2-66.5-131.2c-7.5,1.3-10.3,35.3-5.3,66.5
	c8.3,51.4,36.5,84.5,69.1,122c62.2,71.3,119,96.6,149.7,98.6c5.2,0.3,23.8,1.6,25.1-3.1c0.4-1.3-0.4-4.4-13.7-11.9
	c-17.4-9.8-26-14.8-50.2-18.5c-27.6-4.3-48.8-21.5-82.3-48.9c-58.4-47.6-83.8-110.3-81.5-111.9c2-1.3,23.1,43.9,76.6,89
	c0,0,35.2,29.7,124.2,60.8c7.4,2.6,25.6,8.7,43,1.2c5.8-2.5,14.6-7.8,13.8-12.2c-1.2-6.6-23.2-7.7-32.1-8.4
	c-23.6-1.8-58.8-8.5-107.9-31.3c-21.7-11.6-87.2-48.8-116.3-105.7c-16.3-32-12.4-52.9-11-58.7c1.3-5.5,6-26,20.7-31.6
	c12.7-4.8,19.2,6.6,37.4,4c3.9-0.6,9-1.9,34.3-18.9c17.8-12,26.7-18,29.8-21.1c28-28.3,21.9-82.5,13.4-84.6
	c-4.9-1.2-8.3,15.7-30.8,30.8c-6.5,4.4-11,7.4-18.1,9.2c-21.5,5.7-35.6-7.8-48,0.9c-1.1,0.7-7.1,4.9-7,10.6c0,2,0.8,5,2.4,5.3
	c1.5,0.3,3.5-1.9,4.1-3.6c0.4-0.9,1.9-5.7-8.8-16.6c-14.7-15.1-25.7-14.1-39.6-29.1c-3.8-4.1-5.8-6.2-7.7-9.9
	c-11.8-22.7,7.6-49.8,2-53.5c-3.4-2.2-14.1,4.9-21.6,15c-16.6,22.3-16.1,56.8-4.4,82.3c9.1,19.8,17.8,18.8,28.2,44.5
	c4.7,11.5,7,22,13.2,22.9c7.6,1,10.4-14.1,19.8-15.9c14-2.6,24,27.7,55,60.8c12.8,13.7,31,32.6,59.2,42.7c17,6.1,32.1,6.9,49.5,6.6
	c53.5-1,104.4-12.8,158.5-31.3c24.3-8.3,56.4-20.3,93.4-37.4c44.4-20.8,114.4-49.8,191.1-64.3c21.3-4,54-9,91.6,1.8
	c33,9.5,58.2,27.9,56.4,32.6c-1.9,5-31.6-11.3-64.7,0.4c-20.7,7.3-33.3,22.2-41,31.3c-21.1,25-16.1,38.7-40.5,73.1
	c-11.4,16.1-17.2,24.2-27.3,29.5c-19.5,10.2-32.9,1.3-71.3,1.3c-28.7,0-46.2,0-63.4,9.7c-25.4,14.3-34.7,41.1-44.5,69.1
	c-8.1,23.2-26.5,75.9-7.9,89.8c16.7,12.6,57.9-10.6,110.1-11.9c4.1-0.1,12.5-0.2,18.5,5.3c13.3,12,4,40.3,3.5,41.8
	c-4.4,13-12.6,22.7-41,44c-39.5,29.7-63.6,47.7-73.1,40.5c-7.2-5.5-7-26.5,1.8-37.9c3.2-4.1,6.2-5.3,7-9.7
	c1.9-9.7-11.1-15-10.6-23.3c0.8-12.7,31.4-17.4,30.8-22.9c-1-8.6-75.9-5-76.6-12.3c-0.3-2.5,7.9-5.1,9.7-5.7
	c44.1-14.3,85.6-11.8,85.6-11.8c76.8,4.5,95.3,2.3,95.4,4.8c0.2,6.8-144.2,18.4-144.9,13.2c-0.3-2.6,33.7-9.4,50.2-12.3
	c37.4-6.7,64.6-7.8,73.1-8.4c69.9-5.1,131.5-70.2,140.5-79.7c67.4-71.2,72.1-157.4,85.4-183.6c0.5-0.9,2.6-5,2.6-10.6
	c0.1-6.9-3.2-15.3-6.2-15.4c-5.9-0.2-8.2,31-20.3,66.9c0,0-10.2,30.4-30.4,63.4c-24.5,40-74.5,65.8-171.3,119.8
	c-46,25.7-75.7,39.9-103.5,28.6c-1.9-0.8-25.3-10.6-27.7-28.6c-3.5-25.8,37-49.5,48.9-56.4c28.1-16.4,46.6-16.8,78.8-25.1
	c21-5.4,72.2-18.7,111.9-48c59.6-44.1,74.9-111.2,84.1-107.4c5.3,2.2,1.9,25.2-4,42.7c-12.1,36.1-37.8,58.1-52,69.1
	c-62.9,49.1-121.6,57.1-216.7,110.5c-14.7,8.2-36.6,21.2-34.3,30.3c2.2,8.7,25.6,10.3,37.8,9.8c20.9-0.9,36.9-9.2,45.8-15"/>
</svg>
