<svg id="Layer_1" data-name="Layer 1" xmlns="http://www.w3.org/2000/svg" viewBox="0 0 543.8 240.21"><defs><style>.cls-1{fill:none;stroke:#000;stroke-miterlimit:10;}</style></defs><path class="cls-1" d="M551.72,233l-10.24-5.29c-40.13-16-67.06-13.25-84.87-6.78-14.5,5.25-36.69,17.94-47.82,9a15.61,15.61,0,0,1-4.89-7.51c1.83-5.64,6.1-10,5.5-16.28-.61-7.51-7.93-11.89-14-8.13s-13.42,8.76-20.74,4.38a4,4,0,0,1,.22-5.59,4,4,0,0,1,1-.67c3-1.88,6.71-1.26,9.76-1.26,6.1-.62,12.8-3.13,15.86-9.39,3.65-8.13.61-16.9-3.42-24.46-1.22,1.35,1.35,2.92,0,0-2.08,6.31,1.59,11.32,2.79,17.58.61,2.5-.6,4.38-1.21,6.26-1.84,2.5-3.67,5.64-3.67,8.76,5.49,5,12.81-.63,17.69-4.38,1.83-1.88,2.44-4.38,3.05-6.89a23.89,23.89,0,0,0-1.22-11.27c-1.83-10.62-3.05-21.28-9.76-30-3.66-4.39-9.76-5-13.42-.63a9.8,9.8,0,0,0-1.22,8.14c2.44,8.13,4.88,16.28,1.83,23.79-.61,1.25-.61,5-4.88,3.13-1.22-7.51-1.83-15.66-8.54-20-3.05-6.27-.61-12.52,4.27-16.91,5.49-10.62,10.37-24.41,1.83-35A11.19,11.19,0,0,1,385,99a7.69,7.69,0,0,1,2.24.18A2.37,2.37,0,0,1,385,99c10-1.68,11.59,16.17,11.77,22.93.1,3.91.24,8.32-1.63,11.89a4.75,4.75,0,0,1-3.35,2.79c-1.57.26-1.3-.5-1.26-1.87s.08-3,.17-4.39c.62-9.51,4.48-19.53-1.75-28-4.13-5.64-13.31-9.62-20.45-6.07-5.42,2.69-9.83,9.8-8.59,13.67a5.21,5.21,0,0,1,.32,3.75,4.31,4.31,0,0,1-2.34,2.16,10.11,10.11,0,0,1,3.23,4.65,10,10,0,0,1,.4,1.88,1.73,1.73,0,0,1,.8,1.68,1.75,1.75,0,0,1-.84,1.25,7,7,0,0,0,2.31,4.72c2.63,2.1,6.23.77,7.54.28,3.94-1.45,10.46-4.77,8.31-10.16,1.6,0,.7,2.85,0,0,2.32.36,3.54-1.52,4.76-2.77,1.22-1.88,2.44-5,.61-6.89-1.22-1.25-3.66-1.25-5.49,0a8.19,8.19,0,0,0-2.44,7.52c0,1.25,1.22,1.87,2.44,1.87,1.22-.62,1.83-2.5.61-3.13-4.88-2.5-6.1-6.26-4.88-11.27-2.44-4.37-7.93-1.25-12.2-2.5-.61-.62-1.22-1.25-1.22-1.87,1.83-5,7.93-6.89,12.81-5.64,7.32,1.88,13.42,7.51,14.64,15,0,3.14.61,6.26-.61,9.39-3.66,5.64-6.71,11.9-11,16.91a5.22,5.22,0,0,1-3.66,1.87,20.87,20.87,0,0,0-22.57,16.91c-1.22,7.51,0,15-.61,22.53a2.73,2.73,0,0,1-2.44,1.88c-2.44-.62-4.88-3.13-7.32-2.5-1.83,1.25-2.44,5.63-6.1,3.76-6.71-4.39-14.64-5-22.57-5.64a5.82,5.82,0,0,1-3-2.62c.5,0,0,.12,0,.12.61-2.51,2.44-3.13,4.26-3.13,6.1-1.88,12.21-.63,18.3,1.25,5.49,1.25,7.93,7.51,6.1,13.15,2.44,6.88,9.76,9.39,15.86,12.51,3.05,1.26,5.49-1.24,7.32-3.12,5.49-6.89,4.27-15.66,2-23.41a3.49,3.49,0,0,0,.36,1.38l-.36-1.38c-.22.42,0,.7,0,0a6.27,6.27,0,0,0-1,1.26,2.28,2.28,0,0,0,1-1.26c-3.24,9.63.42,19-2,28.41-1.22,4.39-6.1,3.76-9.76,5.64-1.83,1.25-2.44,3.13-3.05,5v6.18c-3.05,14.4-6.1,28.17-11.59,41.94-2.43,7.52,0,14.4,4.27,20.66,4.27,7.52.61,15-5.49,19.41s-12.81,5.63-19.52,1.88c-3.05-2.5-5.48-6.89-1.83-10,6.1-5,12.82-8.76,15.25-16.27.61-1.88,3-1.26,4.28-1.26,4.87,1.88,11.58,3.76,14-1.88,3.66-10,5.49-19.4,7.93-30,1.83-7.52,3.66-15.66,10.37-20,4.27-2.5,9.76.63,12.2,4.39.61,1.25,0,3.13-.61,4.38-3.05,4.38-6.1,8.14-7.32,13.15-.61,7.51.61,15,1.22,22.53,1.22,6.89.61,13.77,0,20.66,0,2.51-.61,4.38.61,6.89,1.22,3.75,0,8.14-5.49,7.51-3.05,0-4.88,3.13-6.1,6.26-1.83,7.51-4.88,14.4-6.71,21.91a8.22,8.22,0,0,0,.61,3.76c3.05,4.38,9.15,2.5,12.2-.63,6.1-6.26,8.54-15,11-23.16-1.22-5.64-7.93-8.14-12.81-10-2.44-1.25-5.49-3.13-5.49-6.26.61-18.15-5.49-35.06-6.71-53.21,0-3.76.61-7.51,3.66-10a15.09,15.09,0,0,1,12.2-3.75c9.76,1.87,18.3,10,28.06,6.88,6.1-2.5,9.15-9.39,9.15-15.66-.61-3.76-1.22-8.13-4.27-9.39-11-4.38-23.18-5-34.77-5.63-9.76,3.75-11,16.27-14,25A9.07,9.07,0,0,1,349,228.7c-35.38,3.75-69.53.63-104.3-1.88-9.76-5-19.52-11.27-31.11-10a4,4,0,0,1-3.78-4.14,4.34,4.34,0,0,1,.12-.87c1.22-3.13,3.66-5,4.27-8.13,1.22-7.51-2.44-14.4-6.71-20.34a4.05,4.05,0,0,0,1.34,2.63,10.53,10.53,0,0,0-1.34-2.63c-.09.79-.33,3.62.61,4,2,.72-.34-3.54-.61-4a3.31,3.31,0,0,0-.06.94,2.94,2.94,0,0,0,.06-.94c-1.83,9.7-1.83,20.34,5.49,27.22,2.44,2.51,5.49,4.39,9.76,3.13,3-6.25.61-13.14-.61-19.4-.61-5,.61-11.27-4.88-13.78-2.44-.62-4.88,0-6.1,2.51-.61,1.25-1.83,2.5.61,4.38,8.54-.63,7.32-10.63,5.49-16.9v-3.76c-1.83-13.15-8.54-28.79-23.18-28.17-4.27,8.14,1.83,16.28,4.27,23.79,3,9.39,2.44,18.78.61,28.17-1.22,5.64,3.66,9.39,6.1,13.77,0,6.26-7.32,5-11.58,6.26-7.33,1.25-14.65-1.88-22,0-.6,0-.6-.63-.6-1.25l.6.62s-.6.63-.67.33c3.19-6.88,1.3.35,0,0,2.5-6,5.55-12.22,5.55-19.1,1.23-13.15,3.66-26.92,1.71-40.27,1.58.09-.2,3.6,0,0,5,.18,9.27-1.68,13.54,1.43l.61,1.25a6.75,6.75,0,0,1-11,0c-3.65-5.63-6.1-10.62-6.71-16.9,0-6.26-3.05-12.52-5.48-18.16-1.84-5.63-2.45-12.52,1.83-17.52,1.21-.63,1.82-1.88,3-3.13,5.49-4.39,11-1.26,17.08,0,2.45,0,3.66-1.88,5.49-2.51,3.05-1.25,7.93-.63,5.49,3.13-2.44,4.39-8.53,3.76-12.81,5-7.93,3.13-13.42,10.62-12.19,19.41,0,1.88-1.23,4.37-3.06,3.13-.61-1.25,0-4.39,1.83-4.39,1.84.63,3,2.51,4.88,3.76l.61-.62c-1.83-2.51-6.71-5-3-7.52,3-1.25,3.65,3.13,6.09,3.76a3.36,3.36,0,0,0,3.05-1.88c1.22-3.13,0-8.14,3-10,2.44-.62,4.88.63,7.32,0,1.22-.62,2.44-.62,3.05-2.5,0-1.26-1.56-2.08-1.89-3.36-3,5.25.06,11.51-.56,17.14,0,.63,1.83,1.25,1.83,1.88,0,1.88-1.83,3.76-3,5-.61.62.06,0,0,0a13.1,13.1,0,0,0-.28,2.65q1.39,3.77.28,4.86-2.18,2.13-14-6.26a5.23,5.23,0,0,0-3.66-1.88c-3,1.88-4.27,6.89-7.93,8.77-4.27,1.88-9.15,2.5-14,3.12-4.27,1.27-7.3,4.41-9.13,8.78a52.51,52.51,0,0,0-2.41,9.4c-1.83,22.54-3,44.45-3,66.36,0,3.13-4.88,3.75-6.1,6.26-1.22,4.38,2.44,8.14,6.1,10,1.83.63,3.66-.62,5.49-1.87,1.83-1.88,1.22-4.39,1.12-6.19,1.12-.11.56,1,0,0,1.72-.22,3.81-.12,4.47-2.09a5,5,0,0,0-1-4.58c-2.2-2.67-3.36-4.86-2.88-8.51,1-7.88,5.13-15.39,2.74-23.49-.47-1.62-.88-3.13-2.6-3.58a7.4,7.4,0,0,0-4.93.73c-.65-1.46,2.38-1.25,0,0,.06-.51-.56-1.11-.56-1.76a20.16,20.16,0,0,1,12.2,0c6.71-2.51,6.71-12.52,3.66-18.16h-1.23c-1.22.63-1.22,1.88-1.82,3.14-1.83,15-3,30-5.5,45.07-.61,4.38.62,10.62,5.5,11.89,2.43.63,4.88-.62,7.32-1.88,4.27-3.13,7.32-9.38,4-15.13-1,1.5,2.75,4.42,0,0-5.18,3.87-7,12-2.14,17,6.11,5.64,14.64,6.26,22.57,8.77,1.83.62,3.05,2.5,4.28,3.75a9.52,9.52,0,0,1,1.22,5.64c1.82,14.4,7.93,27.54,12.8,40.69,3.66,9.39,9.15,18.15,12.81,28.17.61.62,1.22,1.88,1.83,2.5,1.83,4.39,2.44,9.39,6.1,13.15,1.83,1.25,4.88,1.25,7.32,0,10.37-7.52,1.22-18.78-2.44-27.55-1.22-3.75-4.88-7.51-9.15-8.13-3.05,0-6.1,3.75-9.15,2.5-3.05-1.88-4.27-5-5.49-8.14-1.22-1.87-2.44-3.13-4.27-2.5-6.1,1.25-11,8.14-7.93,14.39,1.83,2.51,4.27,3.14,6.71,5a2.09,2.09,0,0,1,.61,1.64l-.61-.38.61.38c-.52.36-1,.15-1-.5,3.48,6.37,8.36,10.75,15.07,12.63,1.83.63,4.27-.63,4.27-1.88,3-7.51,1.22-15.66.61-23.79-.61-10-6.1-18.78-10.37-28.17-3.66-8.14,3.05-15.66,5.49-23.16,1.22-4.38,3.05-10.63-2.44-13.15-6.71-2.5-13.42-4.38-20.13-8.14-1.83-1.25-3.05-1.88-3.73-4.47a2.24,2.24,0,0,0,1.84-.63c.07.76-.49,3.49-1.61,1.76-.5-.79.68-1.71,1.45-1.58,1.94.32-.65,3.06-1.73.7,8.18-3.24,13.24,7.18,15.66,13.42,6.43,15.22,5.82,32.13,7.65,48.4.61.63-.61,3.13,2.44,2.51,1.23,0,1.83-1.26,2.44-1.88,2.44-5.63,4.27-11.27,6.72-16.9,4.26-10.63,7.92-21.92,12.19-32.56,0-1.25,0-3.12-1.22-3.75-1.83-.63-4.27,0-4.88,3.13,0,.62-.61.62-1.22,1.25a8.17,8.17,0,0,0-.61,3.76c-3.66,11.26-9.15,21.28-11,33.17-.61,4.39-5.49,6.89-8.53,4.39-1.22-1.25-3.06-3.13-3.67-5-3-11.9-3.65-23.79-10.37-35.06-1.82-2.51-4.88-3.13-7.93-3.75a213.77,213.77,0,0,0-31.24-1c-39.36,1.6-55.79,13.19-81.52,14.58-16.12.88-39.43-2.07-68.69-20.47" transform="translate(-8.15 -94.24)"/></svg>