<svg id="Layer_2" data-name="Layer 2" xmlns="http://www.w3.org/2000/svg" viewBox="0 0 941.27 201.56"><defs><style>.cls-1{fill:none;stroke:#000;stroke-miterlimit:10;stroke-width:32px;}</style></defs><path class="cls-1" d="M561.17,328l41,108.66,35-97.43,37.32,98.42L711.11,330" transform="translate(-546.2 -283.34)"/><path class="cls-1" d="M741.17,384h80.58s5.29-41.14-40.29-41.14-40.29,48.88-40.29,48.88-1.8,24.75,14.71,38c9.55,7.7,20.36,8.07,25.58,8.2,29.52.76,49.72-25,52.84-29.06" transform="translate(-546.2 -283.34)"/><path class="cls-1" d="M877.57,283.41l.66,168.11" transform="translate(-546.2 -283.34)"/><path class="cls-1" d="M1011.33,365.38" transform="translate(-546.2 -283.34)"/><path class="cls-1" d="M1016,377.53c-9.3-20.62-26.9-34.34-45.64-34.67-2.57-.05-16.77-.31-27.4,9.86-12,11.45-11.09,28.17-10.52,39,.53,10.2,1.42,27.13,14.6,37.82,9.86,8,21.44,8.32,25.33,8.43,4.13.11,16.34.44,27.18-8,15.12-11.74,15.16-30.87,15.12-33.33" transform="translate(-546.2 -283.34)"/><path class="cls-1" d="M1061.53,387.77s-3.46-44.36,43.19-45c6.62-.08,22.81-.46,32.43,10.52,6.61,7.56,7.73,17.74,9.26,31.81a108.88,108.88,0,0,1,.66,12.22c-.17,2.82-1.56,20.91-16.84,32.37a43,43,0,0,1-24.79,8.29,39.13,39.13,0,0,1-22.11-5.65c-8.5-5.35-12.25-12.72-15.19-18.5A62.08,62.08,0,0,1,1061.53,387.77Z" transform="translate(-546.2 -283.34)"/><path class="cls-1" d="M1196.62,324.69l1.65,125.17c1.12-13.06,9.39-102.71,37.32-107,5.58-.86,20.33.4,25.3,9.12,2.83,5,1.49,10.6,1.12,12.34-2.36,11-2.37,36.05,6,94.46,1.12-37.81,7.1-66.52,12.38-85.69,4.19-15.23,8.51-26.52,18.33-29.9,9.44-3.26,21.48,1.64,27.74,9.57,7.64,9.66,5.26,22,4,35-1.61,16.2-2.09,39,3,67.71" transform="translate(-546.2 -283.34)"/><path class="cls-1" d="M1385.2,389.38l78.61-1.61c.27-2.53,1.78-19.17-10.57-32.36-10.92-11.67-25.06-12.49-28.73-12.65-2.36-.1-16.31-.75-27.87,8.68-20.06,16.37-14.74,50.2-14.74,50.2s1.44,20.18,16.91,30.51c8.91,6,18.13,6,24.39,5.86,26.8-.36,46.23-18.4,52.83-25.14" transform="translate(-546.2 -283.34)"/></svg>