<svg id="Layer_1" data-name="Layer 1" xmlns="http://www.w3.org/2000/svg" viewBox="0 0 920.01 160.7"><defs><style>.cls-1,.cls-2{opacity:0.3;}</style></defs><path class="cls-1" d="M583.1,348.86l18.55,63.59,16.89-59.11q2.72-9.29,4-12.67a16.55,16.55,0,0,1,4.9-6.46q3.6-3.07,9.85-3.08t10,3.08a17.61,17.61,0,0,1,5.06,6.67q1.45,3.6,4.06,12.46l16.89,59.11L692,348.86c1.26-4.59,2.26-7.91,3-10a13.16,13.16,0,0,1,3.86-5.42c1.8-1.56,4.41-2.35,7.81-2.35a12.48,12.48,0,0,1,8.86,3.55,11.08,11.08,0,0,1,3.76,8.34q0,4.38-3.23,13.24l-23.25,68.18q-3,8.64-4.69,12.51a18.67,18.67,0,0,1-5.27,6.88q-3.58,3-9.85,3-6.46,0-10.16-3.23a19.64,19.64,0,0,1-5.48-7.92q-1.77-4.69-3.85-12.2L637.3,368,621.56,423.5q-3.12,11.56-6.77,17.46T602,446.85a16.29,16.29,0,0,1-8-1.82,15.4,15.4,0,0,1-5.47-5.22,39.13,39.13,0,0,1-3.86-8q-1.67-4.65-2.61-7.35l-23-68.18q-3.43-9.58-3.44-13.24a11.4,11.4,0,0,1,3.65-8.24,12.21,12.21,0,0,1,9-3.65q7.08,0,9.59,4T583.1,348.86Z" transform="translate(-555.57 -286.26)"/><path class="cls-1" d="M810.79,395.87H755.12A37.77,37.77,0,0,0,759,413a26.18,26.18,0,0,0,24,14.91,34.12,34.12,0,0,0,9.33-1.2,30.25,30.25,0,0,0,8.18-3.76,62.27,62.27,0,0,0,7.3-5.47c2.22-1.94,5.11-4.59,8.65-7.92a9.36,9.36,0,0,1,6.26-1.88,10.3,10.3,0,0,1,7.09,2.4,8.6,8.6,0,0,1,2.71,6.78q0,3.85-3,9a35.76,35.76,0,0,1-9.12,9.91,52,52,0,0,1-15.32,7.87,66.19,66.19,0,0,1-21.22,3.12q-27.42,0-42.63-15.63T726,388.68a70.79,70.79,0,0,1,3.75-23.4,51.58,51.58,0,0,1,10.94-18.51,47.61,47.61,0,0,1,17.73-11.83,63.5,63.5,0,0,1,23.35-4.12q16.68,0,28.61,7a46.23,46.23,0,0,1,17.88,18.19,47.86,47.86,0,0,1,5.94,22.73q0,10.73-6.15,13.91T810.79,395.87Zm-55.67-16.16h51.6q-1-14.59-7.87-21.84t-18-7.24A22.77,22.77,0,0,0,763.41,358Q756.59,365.33,755.12,379.71Z" transform="translate(-555.57 -286.26)"/><path class="cls-1" d="M864.11,427V303.56q0-8.55,3.81-12.93a12.92,12.92,0,0,1,10.27-4.37,13.48,13.48,0,0,1,10.42,4.32q4,4.34,4,13V427q0,8.65-4,13a13.54,13.54,0,0,1-10.37,4.33A12.87,12.87,0,0,1,868,439.81Q864.12,435.34,864.11,427Z" transform="translate(-555.57 -286.26)"/><path class="cls-1" d="M1024.11,411.61a24.55,24.55,0,0,1-3.18,11.37,39,39,0,0,1-9.7,11.52,50.08,50.08,0,0,1-16.42,8.8,69.43,69.43,0,0,1-22.3,3.34q-26.38,0-41.18-15.38T916.52,390q0-17.5,6.78-31a48.61,48.61,0,0,1,19.6-20.79q12.83-7.35,30.65-7.35a60.82,60.82,0,0,1,20.27,3.23,52.72,52.72,0,0,1,15.64,8.34,39.78,39.78,0,0,1,9.8,10.89,21.57,21.57,0,0,1,3.39,10.79,11.35,11.35,0,0,1-3.81,8.65,13,13,0,0,1-9.22,3.55,9.26,9.26,0,0,1-5.89-1.83,28.69,28.69,0,0,1-5.27-5.89,43,43,0,0,0-10.89-11.88q-5.69-4-14.44-4a24.57,24.57,0,0,0-20.33,9.85q-7.71,9.85-7.71,26.95a52.05,52.05,0,0,0,2,14.75,33.65,33.65,0,0,0,5.73,11.47,24.55,24.55,0,0,0,9.07,7.19,27.65,27.65,0,0,0,11.68,2.45,26.32,26.32,0,0,0,14.65-4q6.09-4,10.78-12.1a28.11,28.11,0,0,1,5.63-7.5,10.7,10.7,0,0,1,7.41-2.71,11,11,0,0,1,8.65,4A12.71,12.71,0,0,1,1024.11,411.61Z" transform="translate(-555.57 -286.26)"/><path class="cls-1" d="M1161.38,389a67.32,67.32,0,0,1-4,23.46A51.93,51.93,0,0,1,1146,430.9,50.65,50.65,0,0,1,1128,442.73a63.31,63.31,0,0,1-23.46,4.12,61.59,61.59,0,0,1-23.25-4.17A51.37,51.37,0,0,1,1052,412.4a67,67,0,0,1-3.91-23.41,67.9,67.9,0,0,1,4-23.66A51.5,51.5,0,0,1,1063.38,347a50.25,50.25,0,0,1,17.93-11.73,67.87,67.87,0,0,1,46.71.05,50.51,50.51,0,0,1,29.45,30.24A67.59,67.59,0,0,1,1161.38,389Zm-28.57,0q0-17.4-7.66-27.1t-20.59-9.7a25.54,25.54,0,0,0-14.7,4.33q-6.36,4.32-9.8,12.77a58,58,0,0,0,0,39.2,28,28,0,0,0,9.7,12.77,25.18,25.18,0,0,0,14.85,4.43q12.93,0,20.59-9.75T1132.81,389Z" transform="translate(-555.57 -286.26)"/><path class="cls-1" d="M1279.23,390.87v37.84q0,9-4.07,13.45a13.79,13.79,0,0,1-10.73,4.48,13.39,13.39,0,0,1-10.48-4.48q-4-4.49-4-13.45V383.36a147.07,147.07,0,0,0-.73-16.68,18,18,0,0,0-4-9.74q-3.23-3.81-10.21-3.81-14,0-18.4,9.59t-4.43,27.52v38.47q0,8.87-4,13.4a13.44,13.44,0,0,1-10.58,4.53,13.66,13.66,0,0,1-10.58-4.53q-4.11-4.55-4.12-13.4V347.29q0-8,3.7-12.19a12.41,12.41,0,0,1,9.75-4.17,13.26,13.26,0,0,1,9.75,3.9q3.92,3.92,3.91,10.79v2.71a49.53,49.53,0,0,1,15.84-13,42,42,0,0,1,18.77-4.17q10.74,0,18.45,4.28a33.55,33.55,0,0,1,12.72,12.92,49.42,49.42,0,0,1,15.43-13,39.33,39.33,0,0,1,18.24-4.23q11.67,0,20.12,4.59a29.19,29.19,0,0,1,12.61,13.14q3.66,7.71,3.65,24.29v55.56q0,9-4.06,13.45a13.8,13.8,0,0,1-10.74,4.48,13.64,13.64,0,0,1-10.58-4.53q-4.12-4.55-4.12-13.4V380.86a109.93,109.93,0,0,0-.78-14.7,16.88,16.88,0,0,0-4.22-9.28q-3.45-3.75-10.43-3.75a19,19,0,0,0-10.68,3.34,22.59,22.59,0,0,0-7.87,9Q1279.22,372.63,1279.23,390.87Z" transform="translate(-555.57 -286.26)"/><g class="cls-2"><path d="M1452.12,396.08h-55.66a37.67,37.67,0,0,0,3.91,17.1,26.15,26.15,0,0,0,24,14.9,34,34,0,0,0,9.33-1.19,30.17,30.17,0,0,0,8.19-3.76,62.27,62.27,0,0,0,7.3-5.47c2.22-1.94,5.1-4.59,8.65-7.92a9.33,9.33,0,0,1,6.25-1.88,10.3,10.3,0,0,1,7.09,2.4,8.57,8.57,0,0,1,2.71,6.78q0,3.85-3,9a36.07,36.07,0,0,1-9.12,9.91,52.22,52.22,0,0,1-15.33,7.87,66.13,66.13,0,0,1-21.21,3.12q-27.42,0-42.64-15.63t-15.22-42.43a70.89,70.89,0,0,1,3.75-23.41,51.64,51.64,0,0,1,11-18.5,47.46,47.46,0,0,1,17.72-11.83,63.54,63.54,0,0,1,23.35-4.12q16.68,0,28.62,7a46.23,46.23,0,0,1,17.88,18.19,47.85,47.85,0,0,1,5.94,22.72q0,10.74-6.15,13.92T1452.12,396.08Zm-55.66-16.16h51.6q-1.05-14.6-7.87-21.84t-18-7.24a22.81,22.81,0,0,0-17.47,7.35Q1397.92,365.54,1396.46,379.92Z" transform="translate(-555.57 -286.26)"/></g></svg>