<svg xmlns="http://www.w3.org/2000/svg" viewBox="0 0 1930.53 2262.64"><path class="path3" d="M1041.36,2213.94c-13.13,8.35-33.7,7.17-42.68-6.77-11.5-17.87,2-39.26,19-47.12a29.23,29.23,0,0,1,19.39-2.07c5.55,1.32,11.71,3.07,15.19,8-4,3.4-1.89-4.14,0,0-6.58,3.79-12-4.58-10.49-10.45,1.63-6.57,8.55-9.85,14.73-10.7,14.92-2.05,25.06,9.62,30.7,22,4,8.72,7.19,18.92,2.66,28.07-14.53-11.3-14.28-31.85-8-47.57,3.3-8.28,8.44-16.75,16.8-20.68,9.77-4.6,20.41-.63,27.9,6.37a41.29,41.29,0,0,1,12.72,31.18c-.39-.43-3.88-4.3-1.85-4.3,1.18,0,1.74,3.45,1.85,4.3-8.37-6.45-6.7-23.29,1.5-29.2,8-7,18-1,24,5,11,12,20,27,18,44-1,5-5,9-10,11-8-4-6-14-6-21a27.49,27.49,0,0,1,15-22c9-5,19,0,25,6,9,10,14,23,12,37-1,5-9,7-13,4-4-4,1-9,5-11,17-9,34-17,46-34,18-27,31-53,40.4-83.28a4.94,4.94,0,0,0-.7,2.1,6.42,6.42,0,0,0,.7-2.1c-4.79,4.44-4.9,11.57-8.6,16.7-3.6-9.73,9.57-17.79,5.82-27.93-1.42-3.82-5.1-6-8.77-3.54-2.85,1.94-4.17,6-8,6.27,2.53-3.83,2.87-.47,0,0,5.88-6.72,14.42-11.62,17.45-20.46.93-2.72,1.59-6.44-2.15-6.94-4.44-.59-8,3.77-12.6,3.1.83-8.27,10.51-9.83,15.68-14.52,3.61-3.27,4.06-8.18-1-10.24-4.22-1.72-9,.14-13.26-1.24,1.59-3.08,2.82,2.55,0,0,2.68-2.54,6.68-2.36,10.1-2.7,4-.39,8.36-.88,12-2.87,3.79-2.09,8.7-9.39,1.94-11.23-.23,3.58,5.7,1.52,0,0,.1,5.88,2.1,12.88,6.1,17.88,3,2,6,6,10,7,6,2,12,1,18,0,6,9-5,17-13,19-7,1-14,0-19-6s-6-13-4-20c1-4,6-4,10-4,14,2,36,16,42-3-1-20-26-9-39-14-5-2-10-9-6-15a13.58,13.58,0,0,1,16-2c14,9,27,23,44,18,6-6,3-15-2-21-7-8-16-11-26-14-13-3-26-3-38-8-1-1-3-4-2-7,2-5,6-10,3-15-11-5-22,0-33,2-6,2-11,1-17.2.12a2.85,2.85,0,0,1,2,.8,7,7,0,0,1-2-.8c.76-.57,4.62-3.79,5.4-2.39,1.08,1.91-4.4,2.47-5.4,2.39a16.13,16.13,0,0,1,3.4-1.7,5.12,5.12,0,0,1-3.4,1.7c13.2-6.12,26.2-12.12,40.2-17.12,4-2,9-6,8-11-10-5-22-3-33.2-1.28a20.79,20.79,0,0,1,3.3-.6l-3.3.6c.83-.51,5.6-3.87,6.27-2.47.77,1.6-5.37,2.37-6.27,2.47,6.93-4.66,15.52-6.74,21.66-12.6,5-4.81,8.83-17-1-18.88-5-1-10.35,0-14.71-3.12,3.89-3.91,2.69,1.94,0,0,6-6,16-7.43,20.65-14.8,5.14-8.1-.44-16.84-7.2-21.69-3.73-2.69-8.31-3.79-12-6.25-4.45-3,3.88-3.33,6.12-3.41,8.4-.3,17.89,1,24.1-6,2-2.27,3.27-5,2.56-8.06a10,10,0,0,0-1.81-3.72c-.41-.56-3.27-2.74-3.29-3.17,0-.87,1.63-1.83,1.62-.3,0,1.29-1,1.52-1.62.3,7.41-1.7,16.87-3,21.73-9.54,7.37-15.48-5.63-29.48-14.73-39.76,2.51.19.92,3.56,0,0,3.1.28,6.1.28,9.1,1.28,8,6,16,10,25,15,6,3,14,5,18,0,5-7,2-16-4.9-20.38a4,4,0,0,1,1.7,2.1,9.06,9.06,0,0,1-1.7-2.1c7.85,5,14.25,12.91,23.46,15.54,4.07,1.17,9.48,1.67,12.51-1.89,2.64-3.1,2.54-7.87,1.93-11.65,3-.42-1,3.19,0,0,9,9.38,20,23.38,34,17.38,13-7,16-23,26-32,4-4,5,3,4,6-5,13-10,27-4,40,10,8,23,0,30.1-8.28a16.7,16.7,0,0,1-2.7,5.5,11.27,11.27,0,0,1,2.7-5.5c-5.36,6.76-10.64,16.3-9,25.25,2,11.48,15.22,14.25,25,12.07,6.72-1.49,13-4.63,19-7.72-.36,2.17-2.3.18,0,0-1.1,2.68-1.1,6.68-4.1,8.68-9,7-16,15-20,25-1,4,0,8,4,10a39.93,39.93,0,0,0,24.1-1c.53,3.14-4.81.08,0,0-5,8.22-14.19,12.52-19.69,20.3-2.53,3.58-4.8,8.68-2.41,12.9s8.62,5.58,13,6.56c6.4,1.42,13.16.52,19.38,2.84-2.45,1-2.79-1.49,0,0-15.4,1.38-34.4-2.62-45.4,9.38-4,12-2,27,8,36,11,8,21,13,32,21,1,1,1,2,2.5,3a14.82,14.82,0,0,1-6.1-4.3,25.77,25.77,0,0,1,6.1,4.3c-16.46-7-31.49-20.71-50.06-21.58a30.35,30.35,0,0,0-12.92,2.16,26.36,26.36,0,0,0-6.55,3.62c-1.65,1.35-2.7,3.35-4.1,5-5.06,6-12.48,10.91-15,18.63-3.65,11,5,16,9.67,24.57a3.93,3.93,0,0,1-1.2-2,13.08,13.08,0,0,1,1.2,2c-9.31-10.27-19.7-25.31-35.37-17.22-11.41,5.89-22.76,21.87-37.3,15-11.19-5.31-11.76-21.53-10.72-32.1,1.69-17.12,10-33.17,21.43-45.81,12.21-13.49,32-30.66,51.56-22.33a16.56,16.56,0,0,1-8.1-3.8,40.17,40.17,0,0,1,8.1,3.8c-1.19.12-12.1-.12-9.25-3.12,1.54-1.61,7.75,2.33,9.25,3.12a14.51,14.51,0,0,1-4.2.6,6.25,6.25,0,0,1,4.2-.6c-19.1,4.08-47.1,6.08-56.1-13.92-4-7,2-17,11-17,8,6,2,17-5,20-10,4-19-2-28-4-2-1-5-2-7-3-4-3-10-9-6-15,2-2,6-1,8,3,2,6,3,12,4,19,2,16-2,34,8,48,3,3,9,5,12,1,5-7-5-11-11-12-5-1-10,1-14,3-9,7-8,19-10,29-1,5-4,8-7,11-6,3-15,4-20-2-10-10-2-24-4-36-5-25-17-46-14-71,2-9,4-17,8-25l3-3a55,55,0,0,1,24-26c1-1,1-2,2-3,24-15,51-21,78-14h4c5,2,8,4,13,5,2,1,4,3,6,4,1,1,3,0,4,1,4,2,8,6,11,9,2,2,4,2,6,4,1,2,3,3,5,5,5,7,10,14,14,21,1,2,2,5,3,7a114.8,114.8,0,0,1,6,52c-2,15-9,28-19,40s-22,18-34,27c-17,12-34,21-52,29-25,12-46-12-67-23-4,1-8,3-8,8,1,5,2,10,7,12,13,6,27,5,41,8,2,1,3,2,5,2.62a2.56,2.56,0,0,1-.8.7c.19-.18.39.07.33-.19,3.47-.13,6.47,2.87,7.47,5.87s-1,7-3,9c-5,4-12,1-17-1-12-7-24-15-37-20a8.54,8.54,0,0,0-7,0c-1,1-2,4-2,6,4,8,12,14,21,17,8,2,17,1,25,3,3,0,6-2,8,3-4,4-10,3-15,6-2,2,0,5,2,7,5,9,1,19-1,28-3.7-2-5.84-5.84-8-9.3-8,6.28-1,17.28-3,26.28-1,2-2,7-5,5-6-5-5-14-10-19-8,2-1,13-3,19-1,2-1,5-2,6.72-1.64-2,3.19-5.51,0,0-3.24-1.6-3.28-10.18-6.83-10.21-3.09,0-4.14,7-4.88,9.1-1.94,5.64-5.68,10.41-8.7,15.48a71.28,71.28,0,0,0-7.44,19,326.44,326.44,0,0,0-10.77,82.09c0,10.24.77,22.69,11.12,27.94-.3-.32-.58-.68-.9-1a7.07,7.07,0,0,1,.9,1c-13.5-5.12-26.5-16.12-30.5-30.12-3-9,1-19,8-25,12-11,30-17,45-10,8,4,14,9,16,18s-3,19-11,24c-5-2-4-10-2-14,3-7,10-10,17-11,9-1,17,6,21,14,3,8,0,17-5,23-4,4-8,9-15,8,0-3-3-5-1-9,6-10,16-14,27-12a15.89,15.89,0,0,1,11,24c-3,3-7,7-12,4-2-10,6-17,14-21,27-13,55-23,85-20,32,3,62,11,90,27,19,11,35,25,55,34,9,4,19,6,29,10h5c37,9,72,6,109-1,62-10,118-29,175-52a48.75,48.75,0,0,0,11-4c0-49,1-717,2-962-20-2-41-2-61-3-6,0-9-6-8-12,3-9,10-16,9-26-1-12-13-19-23-13s-22,14-34,7c-3-3-2-8,2-10,5-3,11-2,16-2,10-1,21-5,26-15,6-13,1-27-5.6-39.08-2,2.15,2.21,4.66,0,0-3.4,10.08,2.6,18.08,4.6,28.08,1,4-1,7-2,10-3,4-6,9-6,14,9,8,21-1,29-7,3-3,4-7,5-11,1-6,0-12-2-18-3-17-5-34-16-48-6-7-16-8-22-1-3,4-3,9-2,13,4,13,8,26,3,38-1,2-1,8-8,5-2-12-3-25-14-32-5-10-1-20,7-27,9-17,17-39,3-56-1-2-1-5-1-7.18a13.42,13.42,0,0,1,3.65.27c-1,.38-2.85.56-3.65-.27,16.42-2.71,19,25.82,19.3,36.6.16,6.26.4,13.29-2.67,19-1.19,2.21-2.93,4.06-5.52,4.44s-2.12-.81-2.07-3,.15-4.7.3-7c1-15.21,7.33-31.2-2.88-44.73-6.78-9-21.82-15.36-33.52-9.69-8.89,4.3-16.12,15.65-14.09,21.82.37,1.12,1.54,3.58.53,6a7.05,7.05,0,0,1-3.83,3.45,16.25,16.25,0,0,1,5.28,7.43,15.46,15.46,0,0,1,.66,3,2.75,2.75,0,0,1,1.32,2.64,2.84,2.84,0,0,1-1.38,2c.13,1.27.68,5.15,3.78,7.55,4.31,3.34,10.21,1.23,12.36.45,6.46-2.32,17.15-7.62,13.63-16.24,2.61.07,1.15,4.56,0,0,3.8.58,5.8-2.42,7.8-4.42,2-3,4-8,1-11-2-2-6-2-9,0-3,3-5,7-4,12,0,2,2,3,4,3,2-1,3-4,1-5-8-4-10-10-8-18-4-7-13-2-20-4-1-1-2-2-2-3,3-8,13-11,21-9,12,3,22,12,24,24,0,5,1,10-1,15-6,9-11,19-18,27q-3,3-6,3c-17-2-34,10-37,27-2,12,0,24-1,36,0,1-2,3-4,3-4-1-8-5-12-4-3,2-4,9-10,6-11-7-24-8-37-9-2-1-4-2-5-4.18.83,0,0,.18,0,.18,1-4,4-5,7-5,10-3,20-1,30,2,9,2,13,12,10,21,4,11,16,15,26,20,5,2,9-2,12-5,9-11,7-25,3.3-37.38a5.77,5.77,0,0,0,.6,2.2l-.6-2.2c-.35.66.07,1.11,0,0a10.65,10.65,0,0,0-1.6,2,3.64,3.64,0,0,0,1.6-2c-5.3,15.38.7,30.38-3.3,45.38-2,7-10,6-16,9-3,2-4,5-5,8v10c-5,23-10,45-19,67-4,12,0,23,7,33,7,12,1,24-9,31s-21,9-32,3c-5-4-9-11-3-16,10-8,21-14,25-26,1-3,5-2,7-2,8,3,19,6,23-3,6-16,9-31,13-48,3-12,6-25,17-32,7-4,16,1,20,7,1,2,0,5-1,7-5,7-10,13-12,21-1,12,1,24,2,36,2,11,1,22,0,33,0,4-1,7,1,11,2,6,0,13-9,12-5,0-8,5-10,10-3,12-8,23-11,35a12.68,12.68,0,0,0,1,6c5,7,15,4,20-1,10-10,14-24,18-37-2-9-13-13-21-16-4-2-9-5-9-10,1-29-9-56-11-85,0-6,1-12,6-16a25.2,25.2,0,0,1,20-6c16,3,30,16,46,11,10-4,15-15,15-25-1-6-2-13-7-15-18-7-38-8-57-9-16,6-18,26-23,40-1,2-4,4-6,5-58,6-114,1-171-3-16-8-32-18-51-16a6.41,6.41,0,0,1-6-8c2-5,6-8,7-13,2-12-4-23-11-32.48a6.41,6.41,0,0,0,2.2,4.2,16.84,16.84,0,0,0-2.2-4.2c-.16,1.26-.54,5.77,1,6.33,3.27,1.15-.56-5.66-1-6.33a5.06,5.06,0,0,0-.1,1.5,4.44,4.44,0,0,0,.1-1.5c-3,15.48-3,32.48,9,43.48,4,4,9,7,16,5,5-10,1-21-1-31-1-8,1-18-8-22-4-1-8,0-10,4-1,2-3,4,1,7,14-1,12-17,9-27v-6c-3-21-14-46-38-45-7,13,3,26,7,38,5,15,4,30,1,45-2,9,6,15,10,22,0,10-12,8-19,10-12,2-24-3-36,0-1,0-1-1-1-2l1,1s-1,1-1.1.52c5.23-11,2.12.55,0,0,4.1-9.52,9.1-19.52,9.1-30.52,2-21,6-43,2.8-64.28,2.6.14-.34,5.74,0,0,8.2.28,15.2-2.72,22.2,2.28l1,2c-4,6-14,6-18,0-6-9-10-17-11-27,0-10-5-20-9-29-3-9-4-20,3-28,2-1,3-3,5-5,9-7,18-2,28,0,4,0,6-3,9-4,5-2,13-1,9,5-4,7-14,6-21,8-13,5-22,17-20,31,0,3-2,7-5,5-1-2,0-7,3-7,3,1,5,4,8,6l1-1c-3-4-11-8-5-12,5-2,6,5,10,6a5.5,5.5,0,0,0,5-3c2-5,0-13,5-16,4-1,8,1,12,0,2-1,4-1,5-4,0-2-2.56-3.32-3.1-5.38-4.9,8.38.1,18.38-.9,27.38,0,1,3,2,3,3,0,3-3,6-5,8-1,1,.09,0,0,0a20.32,20.32,0,0,0-.46,4.24q2.28,6,.46,7.76-3.57,3.39-23-10-3-3-6-3c-5,3-7,11-13,14-7,3-15,4-23,5-7,2-12,7-15,14a83.31,83.31,0,0,0-4,15c-3,36-5,71-5,106,0,5-8,6-10,10-2,7,4,13,10,16,3,1,6-1,9-3,3-3,2-7,1.8-9.88,1.79-.17.92,1.6,0,0,2.82-.36,6.24-.2,7.3-3.34a7.81,7.81,0,0,0-1.63-7.31c-3.6-4.28-5.5-7.76-4.72-13.6,1.68-12.58,8.43-24.58,4.5-37.5-.78-2.59-1.44-5-4.26-5.72a12.35,12.35,0,0,0-8.09,1.17c-1.06-2.34,3.91-2,0,0,.1-.82-.9-1.82-.9-2.82a34.08,34.08,0,0,1,20,0c11-4,11-20,6-29h-2c-2,1-2,3-3,5-3,24-5,48-9,72-1,7,1,17,9,19,4,1,8-1,12-3,7-5,12-15,6.5-24.18-1.62,2.4,4.51,7.07,0,0-8.5,6.18-11.5,19.18-3.5,27.18,10,9,24,10,37,14,3,1,5,4,7,6,2,3,2,6,2,9,3,23,13,44,21,65,6,15,15,29,21,45,1,1,2,3,3,4,3,7,4,15,10,21,3,2,8,2,12,0,17-12,2-30-4-44-2-6-8-12-15-13-5,0-10,6-15,4-5-3-7-8-9-13-2-3-4-5-7-4-10,2-18,13-13,23,3,4,7,5,11,8a3.32,3.32,0,0,1,1,2.62l-1-.6,1,.6c-.86.58-1.64.25-1.7-.8,5.7,10.18,13.7,17.18,24.7,20.18,3,1,7-1,7-3,5-12,2-25,1-38-1-16-10-30-17-45-6-13,5-25,9-37,2-7,5-17-4-21-11-4-22-7-33-13-3-2-5-3-6.1-7.18a3.76,3.76,0,0,0,3-1c.12,1.2-.8,5.56-2.63,2.8-.83-1.26,1.11-2.72,2.37-2.52,3.18.5-1.06,4.89-2.84,1.12,13.42-5.17,21.71,11.47,25.65,21.46,10.55,24.32,9.55,51.32,12.55,77.32,1,1-1,5,4,4,2,0,3-2,4-3,4-9,7-18,11-27,7-17,13-35,20-52,0-2,0-5-2-6-3-1-7,0-8,5,0,1-1,1-2,2a12.68,12.68,0,0,0-1,6c-6,18-15,34-18,53-1,7-9,11-14,7-2-2-5-5-6-8-5-19-6-38-17-56-3-4-8-5-13-6-37-3-74,0-111-4-10-1-20-4-30-6-12-2-25-3-33,7-5,8-4,18-7,27-4,17-24,17-39,14-5-1-10-3-15-5-22-11-53-27-49-56a21.86,21.86,0,0,0,3-5c8-10,20-14,32-14,12,1,23,9,26,22,3,15-6,26-17,34-26,17-54,25-84,27-3,0-5,2-8,2a83.87,83.87,0,0,1-59-17,12.05,12.05,0,0,0-5-5c-1-1-1-2-2-3s-2-1-3-2a50.25,50.25,0,0,1-12-28c0-13,8-25,20-31a38.61,38.61,0,0,1,21-3c12,2,23,9,26,21,1,5,1,11-2,16-24,29-64,37-99,34-22-2-41-10-61-20-6-3-10-7-15-12-13-14-6-32,0-47,3-6,43-58,55-82,1-2,2-5,3-7,5-15,8-32,2-48-10-23-31-36-49-52l-12-12c-7-9-13-19-15-31a92.41,92.41,0,0,1-.45-23.56,97.6,97.6,0,0,1,3.45-16.44,119.54,119.54,0,0,1,18.11-36.06c4-5.44,9.94-11.6,21.89-23.94,10.08-10.4,15-15.72,20.27-20.15a184.8,184.8,0,0,1,42.73-26.85c27-11,56-13,85-14,31-1,63-9,83-35a77.14,77.14,0,0,0,10-25c1-7,0-14-1-22-2-8-5-15-10-21-1-1,0-2-1-3-12-15-28-24-47-22-13,2-24,6-34,15a62.51,62.51,0,0,0-13,20c-3,7-1,15,3,22,7,12,22,15,35,17,31,4,61-5,91-4,10,0,22-2,29,7,6,10-1,22-12,25-8,2-16-2-21-7-6-8-1-19,6-25,18.52-15.87,37.34-20.64,48-43a42.88,42.88,0,0,0,4-15c.78-10.94,1.41-40.31-16.86-67.58a109.73,109.73,0,0,0-27.74-28.07,111.22,111.22,0,0,0-28.38-14.35c-37.07-7.45-64.11-6.69-82.92-4.15-7.61,1-21.24,3.34-30.72-4.62-7.2-6-11.95-18-7.6-28.07,4.85-11.23,19.85-17.56,34.35-12.22,3.41,1.67,12.53,6.71,16.19,16.84,5.6,15.55-6.18,30.51-10.24,35.67-9.38,11.91-21.6,16.64-27.75,18.5a162.76,162.76,0,0,1-112,2.31c-27.35-14.65-31.9-23.95-31-29.73,1.69-11.4,25.62-16.56,24.71-27.92-.41-5-5.24-5.84-4.9-9.4.92-9.55,35.77-4.91,62.75-24.77,4.77-3.51,21.7-16.36,26.1-39,3.71-19.1-3.54-34.8-6.61-40.63A106.73,106.73,0,0,0,1073.25,374c-7.77-4.79-33.49-20.68-61.87-14.74-25.32,5.29-40.09,25.3-58.46,50.2-22.79,30.89-33.61,62.48-60.28,81.28-2.21,1.55-4.79,3.17-11.88,8.16-23.21,16.37-36.37,27.86-38.48,25.83-.7-.68-.37-3,4.62-10.57,6-8.69,6.24-17.16,2.64-20.15-.6-.5-2.52-1.86-6.78-1.11A160.29,160.29,0,0,0,826,495.65c-30.77,6.7-49.15,20.21-52.28,16.27-2.62-3.31,8.73-14.89,6.76-16.9-3.17-3.23-34.71,24.23-37.33,21.47-.68-.72.82-3.31,2.65-5.95,5.43-13,5.3-17.93,3.3-19.48-6.14-4.76-31.54,21.45-37.65,16.51-4.16-3.36,5.74-17,1.27-21.65-6.65-6.86-32.22,17-68,17-10,0-23,0-27-12-2-8,8-19-2-24-17-2-34,5-50-3a29.05,29.05,0,0,1-11-11c-6-9-6-19-7-29-1-18-3-36,0-54,2-9,4-17,11-23,12-10,29-12,40-1,4,5,3,12,0,18-6,10-16,17-28,21-29-1-55-12-84-15-11-1-21,0-32,1-5,1-9,2-14,3-3,1-4,5-3,8,3,7,7,12,14,15,15,6,34,6,46-6,7-8,8-20,1-28-14-12-34-15-51-10-9,4-22,9-22,20,0,46-3,91-5.4,137.22,0-4.51.4-9,.7-13.5-.2,4.5-.49,9-.7,13.5a241.17,241.17,0,0,0-34.52-18.07,243.87,243.87,0,0,0-28.29-10C340.87,478.52,320.31,472,318.24,460c-1-5.62,2.46-10.42,3.52-12.05,20.87-31.82-18.3-73.37,2-103.43a37.45,37.45,0,0,1,3.14-4,104,104,0,0,0,16.54,1.89,105.66,105.66,0,0,0,25.07-2.11c10.52-2.2,16.49-8.18,15.86-12.55-.47-3.21-4.46-5.19-5.65-5.76-14-5-29-3-44-1a31,31,0,0,0-18,9c-3,4-6,9-4,14,4,12,18,15,30,16,20.35,1.7,38.53-4.72,50-15,4.65-4.16,10.5-9.56,9.92-16.8-.55-6.92-6.66-11.45-8.59-12.77a57.06,57.06,0,0,0-25.45-6.55,58.46,58.46,0,0,0-34.88,11.12c-5-1-9-8-8-14,1.73-10.37,11.05-15.89,14-32a39.73,39.73,0,0,0,.56-9.84c-.44-15.23-7.79-25.18-14.56-25.41-.91,0-4.86,0-9.5,5.63a10.33,10.33,0,0,0-1.5,10.62c1.79,3.7,5.65,4.75,6.93,5.1,6.47,1.77,12-2.5,12.73-3.1,5.76-5.62,23.09-24,22.34-49-.22-7.5-2.17-19.18-18-41C327.52,151.42,307,127.66,272,106.58a22.8,22.8,0,0,1-9.91-8.92c-6.64-11.33.23-24,.66-24.77A21.42,21.42,0,0,1,271,64.31a27.89,27.89,0,0,1,7.65-2.79s-.06.14-.06.14l1.13,26.78c0,48.48,0,96.48,4,144.48,1,11,1,21-1,32-5,18-17,34-35,41-12,4-25,4-36-1a36.26,36.26,0,0,1-21-28c-2-14,8-26,20-31,11-4,22-6,33-2,16,6,32,23,24,40-4,11-17,14-28,17-9,2-17,2-26,2-41,0-92.71,11.06-148,5-4.64-.51-14.46-1.73-22-9.12-7-6.93-10.55-17.79-9.08-28a35.45,35.45,0,0,1,7.76-17C60.13,232.45,96.9,237.41,108.85,239c21.88,2.95,30.71,10.71,33,12.88a47.43,47.43,0,0,1,11.23,16.51,45,45,0,0,1,2.65,13.51,51.63,51.63,0,0,1-7.6,28.77,55.36,55.36,0,0,1-19.66,18.87c-25.45,15.39-54.56,8.77-60.74,7.36-8.06-1.83-48.9-12.06-60-43-19-53,26-96,58-135a259.5,259.5,0,0,0,34-58c7-17,12-33,17-51a155.25,155.25,0,0,0,4-21c0-14-11-29-26-28-10,1-18,11-19,21-1,35,0,70,2,105,6.95,121.52-8.34,162,10,236,1.45,5.84,7.19,27.83-3,46.85-1.59,3-8.8,16.4-22,19.15A22.43,22.43,0,0,1,39.16,420a27.2,27.2,0,0,1-3-20.15,19.29,19.29,0,0,1,18.15-12c7.36-.26,13.72,4.12,15.42,10.07,2.44,8.54-5.37,18-13,18-4.47,0-7.81-3.21-9-4.5-2-5.4,1-10.3,4.29-10.9,2.5-.45,5.67,1.53,7.27,5" transform="translate(-2.24 0.13)"/></svg>